<svg width="11" height="12" viewBox="0 0 11 12" fill="none" xmlns="http://www.w3.org/2000/svg">
<path d="M8 11.5V8.58805C7.99985 8.46035 7.97546 8.33393 7.92824 8.21602C7.88102 8.09812 7.8119 7.99104 7.72481 7.90091C7.63773 7.81078 7.5344 7.73936 7.42073 7.69075C7.30706 7.64214 7.18528 7.61729 7.06235 7.61761H3.93765C3.81472 7.61729 3.69294 7.64214 3.57927 7.69075C3.4656 7.73936 3.36227 7.81078 3.27519 7.90091C3.1881 7.99104 3.11898 8.09812 3.07176 8.21602C3.02454 8.33393 3.00015 8.46035 3 8.58805V11.5M8 0.674173V2.11762C7.99985 2.24532 7.97546 2.37174 7.92824 2.48965C7.88102 2.60755 7.8119 2.71463 7.72481 2.80476C7.63773 2.89489 7.5344 2.9663 7.42073 3.01491C7.30706 3.06352 7.18528 3.08838 7.06235 3.08806H3.93765C3.81472 3.08838 3.69294 3.06352 3.57927 3.01491C3.4656 2.9663 3.36227 2.89489 3.27519 2.80476C3.1881 2.71463 3.11898 2.60755 3.07176 2.48965C3.02454 2.37174 3.00015 2.24532 3 2.11762V0.500006M8 0.674173C7.75605 0.559396 7.49133 0.500019 7.22353 0.500006H3M8 0.674173C8.20235 0.769506 8.38882 0.902728 8.54941 1.06834L9.95059 2.51973C10.1246 2.69959 10.2627 2.91337 10.3569 3.1488C10.4512 3.38423 10.4998 3.63668 10.5 3.89167V9.55788C10.4998 9.81334 10.4512 10.0663 10.3569 10.3022C10.2625 10.5381 10.1244 10.7524 9.95025 10.9328C9.77613 11.1131 9.56948 11.2561 9.34213 11.3534C9.11478 11.4507 8.87119 11.5006 8.62529 11.5H2.37529C2.1294 11.5006 1.88579 11.4509 1.65841 11.3536C1.43103 11.2564 1.22435 11.1135 1.05017 10.9332C0.875994 10.7529 0.73775 10.5386 0.643346 10.3027C0.548942 10.0669 0.500231 9.81396 0.5 9.5585V2.44089C0.500308 2.18548 0.549076 1.93264 0.643515 1.69683C0.737953 1.46102 0.876209 1.24686 1.05038 1.0666C1.22455 0.88634 1.43121 0.743516 1.65855 0.646295C1.88589 0.549074 2.12945 0.499363 2.37529 0.500006H3" stroke="black" stroke-linecap="round" stroke-linejoin="round"/>
</svg>
