<svg width="16" height="17" viewBox="0 0 16 17" fill="none" xmlns="http://www.w3.org/2000/svg">
<path d="M5.56965 3.11852C6.45653 1.41451 6.89962 0.5625 7.5625 0.5625C8.22538 0.5625 8.66847 1.41451 9.55535 3.11852L9.78495 3.55952C10.0369 4.04402 10.1629 4.28627 10.3589 4.44602C10.5549 4.60578 10.7999 4.66503 11.2899 4.78353L11.7351 4.89153C13.4571 5.30928 14.3173 5.51778 14.5224 6.22354C14.7268 6.92854 14.1402 7.6643 12.9664 9.13505L12.6626 9.51531C12.3294 9.93306 12.1621 10.1423 12.0872 10.4003C12.0123 10.6591 12.0375 10.9381 12.0879 11.4953L12.1341 12.0031C12.3112 13.9658 12.4001 14.9468 11.8639 15.3826C11.3277 15.8183 10.5213 15.4208 8.90997 14.6258L8.49208 14.4203C8.03429 14.1938 7.80539 14.0813 7.5625 14.0813C7.31961 14.0813 7.09071 14.1938 6.63292 14.4203L6.21573 14.6258C4.60367 15.4208 3.79729 15.8183 3.2618 15.3833C2.72491 14.9468 2.81381 13.9658 2.99091 12.0031L3.03711 11.4961C3.08751 10.9381 3.1127 10.6591 3.03711 10.4011C2.96291 10.1423 2.79561 9.93306 2.46242 9.51606L2.15863 9.13505C0.984755 7.66505 0.398168 6.92929 0.602564 6.22354C0.806959 5.51778 1.66864 5.30853 3.3906 4.89153L3.83579 4.78353C4.32508 4.66503 4.56937 4.60578 4.76607 4.44602C4.96276 4.28627 5.08806 4.04402 5.34005 3.55952L5.56965 3.11852Z" stroke="#F2BB20" stroke-width="1.12501"/>
</svg>
