<svg width="49" height="45" viewBox="0 0 49 45" fill="none" xmlns="http://www.w3.org/2000/svg">
<path d="M21.1828 33.8287C21.482 33.6865 21.7815 33.5329 22.0823 33.3715C22.4084 33.195 22.7392 33.0096 23.0659 32.8104C23.4692 32.5695 23.8719 32.3138 24.2727 32.0399C24.3439 31.9923 24.4151 31.9447 24.4853 31.8937C24.661 31.7735 24.8368 31.6533 25.0115 31.5297C25.4093 31.2455 25.7995 30.9486 26.1833 30.6423C26.3433 30.5194 26.5024 30.393 26.6593 30.2597C27.2657 29.7667 27.8503 29.2504 28.4197 28.7086C28.9116 28.2425 29.3905 27.7578 29.8574 27.258C29.8805 27.2361 29.8992 27.2117 29.9213 27.1864C30.0816 27.0146 30.2385 26.8439 30.3899 26.6673C30.8632 26.1394 31.3167 25.5949 31.7469 25.0349C32.6653 23.86 33.4985 22.6245 34.2522 21.3342C35.4835 19.1961 36.3648 17.0431 36.8664 14.8878C37.0556 14.0816 37.1807 13.3096 37.2462 12.5742C37.355 11.3762 37.3034 10.275 37.1059 9.26998C37.098 9.23114 37.0911 9.19574 37.0831 9.1569C36.7766 7.73871 36.2257 6.55871 35.4212 5.62341L34.9944 5.16687C33.956 4.17055 32.6054 3.54523 30.9629 3.28476C29.305 3.01016 27.4282 3.19473 25.3351 3.82265C23.242 4.45057 21.1644 5.45231 19.1371 6.83241C17.0979 8.19737 15.2338 9.78707 13.5416 11.6026C11.8527 13.417 10.3914 15.3955 9.143 17.5387C7.91525 19.6645 7.04758 21.8135 6.54327 23.9845C6.04507 26.1388 5.96488 28.0515 6.31191 29.7161C6.67629 31.3642 7.36608 32.6974 8.4044 33.6938C9.29675 34.5502 10.4116 35.1451 11.7608 35.4561C11.9847 35.5088 12.2134 35.5527 12.4468 35.5876C13.2185 35.7195 14.0404 35.7465 14.9135 35.672C15.9006 35.5932 16.9556 35.3816 18.0737 35.0462C19.1169 34.7333 20.1513 34.3293 21.1828 33.8287ZM14.1712 32.9868C14.0958 32.9832 14.0217 32.9717 13.9477 32.9601C13.075 32.8135 12.299 32.5554 11.6314 32.1636C11.2454 31.9421 10.8945 31.6764 10.5796 31.3699C9.7146 30.5427 9.13038 29.4252 8.83106 28.031C8.54981 26.6352 8.59494 25.0516 9.01494 23.243C9.43448 21.4459 10.1788 19.6413 11.1998 17.8548C12.2368 16.0598 13.4668 14.4129 14.8757 12.9036C16.2896 11.374 17.856 10.0309 19.5427 8.9029C21.2508 7.73471 22.9836 6.89637 24.7426 6.36867C26.5016 5.84097 28.0756 5.68732 29.4424 5.93305C30.8307 6.13865 31.9641 6.67174 32.824 7.51922C33.2774 7.9528 33.6576 8.46455 33.9601 9.05203C34.2281 9.58619 34.4359 10.1796 34.5787 10.8413C34.638 11.1383 34.6803 11.4403 34.7077 11.7544C34.8161 12.921 34.7103 14.2156 34.3779 15.6344C34.2819 16.0454 34.1713 16.457 34.0416 16.8669C33.9018 17.3173 33.7428 17.766 33.5658 18.2163C33.4166 18.5983 33.2517 18.9775 33.0687 19.3584C32.8144 19.9106 32.5274 20.4651 32.2101 21.0175C31.7592 21.7935 31.2752 22.5458 30.7525 23.2684C30.6597 23.405 30.5648 23.5346 30.4665 23.6653C30.0428 24.2346 29.5992 24.7873 29.1314 25.3211C28.9347 25.545 28.737 25.7654 28.5315 25.9845C28.3607 26.1706 28.1878 26.3499 28.0149 26.5292C27.7355 26.8116 27.4516 27.0916 27.1568 27.3599C26.7691 27.7273 26.365 28.0771 25.9533 28.4142C25.764 28.5759 25.5693 28.7318 25.3724 28.8808C24.8794 29.2685 24.3699 29.6387 23.8474 29.9903C23.8038 30.0184 23.7612 30.0499 23.7166 30.0745C23.705 30.0855 23.69 30.0975 23.6764 30.1016C23.0047 30.5504 22.3288 30.948 21.6453 31.2954C20.9822 31.6368 20.3126 31.9313 19.6398 32.1781C19.6091 32.1873 19.575 32.1976 19.5464 32.2137C19.4121 32.2614 19.2812 32.3082 19.1459 32.3525C18.9867 32.404 18.8275 32.4555 18.6672 32.5036C17.0037 33.0027 15.5027 33.1644 14.1712 32.9868Z" stroke="black" stroke-width="0.5" stroke-linecap="round" stroke-linejoin="round"/>
<path d="M21.0323 27.2006L19.2003 25.2432L21.6582 24.5059L21.0323 27.2006Z" stroke="black" stroke-width="0.5" stroke-linecap="round" stroke-linejoin="round"/>
<path d="M19.1465 32.3526L14.8567 27.7638L13.9693 26.8121L16.9862 25.9071L16.3465 28.6546L19.5703 32.1055L19.6404 32.1782C19.6097 32.1874 19.5757 32.1976 19.547 32.2137C19.4127 32.2615 19.2818 32.3082 19.1465 32.3526Z" stroke="black" stroke-width="0.5" stroke-linecap="round" stroke-linejoin="round"/>
<path d="M19.6393 32.1781L19.5692 32.1055L16.3454 28.6546L18.5578 27.9909L20.1501 29.6941L21.6449 31.2954C20.9818 31.6367 20.3121 31.9313 19.6393 32.1781Z" stroke="black" stroke-width="0.5" stroke-linecap="round" stroke-linejoin="round"/>
<path d="M21.6465 31.2957L20.1516 29.6944L18.5594 27.9911L19.1992 25.2436L21.0312 27.2009L21.0173 27.2538L21.9628 28.2629L23.6776 30.1018C23.0059 30.5506 22.33 30.9483 21.6465 31.2957Z" stroke="black" stroke-width="0.5" stroke-linecap="round" stroke-linejoin="round"/>
<path d="M23.6779 30.1011L21.9632 28.2623L21.0176 27.2531L23.2301 26.5894L23.5748 26.9581L25.374 28.8804C24.8809 29.2681 24.3714 29.6383 23.8489 29.9899C23.8053 30.018 23.7627 30.0494 23.7181 30.0741C23.7065 30.085 23.6915 30.097 23.6779 30.1011Z" stroke="black" stroke-width="0.5" stroke-linecap="round" stroke-linejoin="round"/>
<path d="M21.0298 27.2003L21.0159 27.2532L23.2284 26.5895L23.5135 25.3723L23.8682 23.8419L26.8988 22.9327L27.0102 22.4496L27.4733 20.4633L24.4393 21.3735L24.5454 20.922L24.6595 20.4231L25.3463 17.4853L26.7758 16.3669L28.7941 14.7834L29.2893 12.6563L29.319 12.52L29.4507 11.9558L26.4201 12.865L26.7694 11.3662L27.0305 10.2424L24.8146 10.9071L24.3627 12.8564L24.2077 13.5287L21.7498 14.2661L22.3602 11.6435L20.1477 12.3072L19.5373 14.9298L16.5204 15.8348L15.9546 18.2717L18.9716 17.3666L18.9293 17.5479L18.2024 20.6739L18.0913 21.1456L14.6545 23.8592L13.9684 26.8118L16.9854 25.9067L16.3456 28.6543L18.5581 27.9905L19.1978 25.243L21.6557 24.5056L21.0298 27.2003ZM20.8243 18.2535L21.184 16.7029L23.6385 15.9666L23.4068 16.9654L22.2674 17.8618L20.6118 19.1679L20.8243 18.2535ZM19.7724 22.7735L19.8504 22.4391L20.0335 21.6497L22.8258 19.463L22.333 21.5857L22.2269 22.0372L19.7724 22.7735Z" stroke="black" stroke-width="0.5" stroke-linecap="round" stroke-linejoin="round"/>
<path d="M25.3713 28.8807L23.5722 26.9585L23.2274 26.5897L23.5125 25.3725L23.8672 23.8422L24.2119 24.2109L26.5364 26.695L27.1557 27.3599C26.768 27.7273 26.3639 28.0771 25.9522 28.4142C25.7629 28.5759 25.5681 28.7317 25.3713 28.8807Z" stroke="black" stroke-width="0.5" stroke-linecap="round" stroke-linejoin="round"/>
<path d="M27.158 27.3607L26.5387 26.6959L24.2143 24.2118L23.8695 23.843L26.9001 22.9339L27.6771 23.765L29.1326 25.3219C28.9359 25.5458 28.7382 25.7662 28.5327 25.9853C28.3619 26.1714 28.189 26.3507 28.0161 26.53C27.7367 26.8124 27.4528 27.0924 27.158 27.3607Z" stroke="black" stroke-width="0.5" stroke-linecap="round" stroke-linejoin="round"/>
<path d="M29.133 25.3222L27.6775 23.7653L26.9005 22.9341L27.012 22.451L27.4751 20.4647L28.8222 21.908L29.039 22.1352L30.4681 23.6663C30.0444 24.2356 29.6008 24.7884 29.133 25.3222Z" stroke="black" stroke-width="0.5" stroke-linecap="round" stroke-linejoin="round"/>
<path d="M30.4648 23.6657L29.0357 22.1346L28.8189 21.9073L27.4718 20.464L24.4378 21.3742L24.5439 20.9227L24.6581 20.4238L25.3448 17.486L25.8974 18.0772L27.3365 19.6165L27.6768 19.9828L30.7508 23.2689C30.658 23.4054 30.5631 23.535 30.4648 23.6657Z" stroke="black" stroke-width="0.5" stroke-linecap="round" stroke-linejoin="round"/>
<path d="M22.2273 22.038L20.7955 22.4675L20.0339 21.6505L22.8262 19.4639L22.3333 21.5865L22.2273 22.038Z" stroke="black" stroke-width="0.5" stroke-linecap="round" stroke-linejoin="round"/>
<path d="M20.7955 22.4669L19.7728 22.7738L19.8509 22.4394L20.034 21.65L20.7955 22.4669Z" stroke="black" stroke-width="0.5" stroke-linecap="round" stroke-linejoin="round"/>
<path d="M18.2035 20.6744L17.1913 19.5916L15.9557 18.2723L18.9727 17.3672L18.9304 17.5485L18.2035 20.6744Z" stroke="black" stroke-width="0.5" stroke-linecap="round" stroke-linejoin="round"/>
<path d="M14.1709 32.986C14.0955 32.9824 14.0214 32.9709 13.9474 32.9594C13.0748 32.8127 12.2988 32.5546 11.6312 32.1628C11.2452 31.9413 10.8943 31.6756 10.5794 31.3691C9.71438 30.5419 9.13018 29.4243 8.83085 28.0302C8.54961 26.6344 8.59473 25.0507 9.01465 23.2422C9.43419 21.4451 10.1785 19.6404 11.1995 17.854C12.2365 16.059 13.4666 14.4121 14.8754 12.9028C16.2893 11.3732 17.8557 10.0302 19.5424 8.90211C21.2505 7.73391 22.9833 6.89557 24.7423 6.36787C26.5014 5.84017 28.0754 5.68652 29.4422 5.93226C30.8304 6.13786 31.9638 6.67091 32.8238 7.51839C33.2771 7.95198 33.6573 8.46372 33.9599 9.05121C34.2279 9.58537 34.4356 10.1788 34.5784 10.8405C34.6377 11.1374 34.6801 11.4396 34.7074 11.7536C33.3888 11.5571 31.8844 11.7198 30.214 12.221C30.081 12.2608 29.9481 12.3008 29.8172 12.3475L29.4506 11.9553L28.8097 12.1476L27.6542 10.9092L27.0304 10.2419L24.8145 10.9066L24.3626 12.8559L24.2076 13.5282L24.1394 13.5487L23.833 13.2209L22.3601 11.643L20.1476 12.3067L19.5372 14.9293L16.5203 15.8343L15.9545 18.2712L17.1901 19.5905L18.2023 20.6734L18.0912 21.1451L14.6544 23.8587L13.9683 26.8112L14.8558 27.7629C14.7139 28.2064 14.5911 28.6517 14.4863 29.0953C14.1546 30.5289 14.0546 31.818 14.1709 32.986Z" stroke="black" stroke-width="0.5" stroke-linecap="round" stroke-linejoin="round"/>
<path d="M24.1402 13.5506L21.7504 14.2675L22.3608 11.6449L23.8337 13.2228L24.1402 13.5506Z" stroke="black" stroke-width="0.5" stroke-linecap="round" stroke-linejoin="round"/>
<path d="M30.7529 23.2688L27.6788 19.9828L27.3385 19.6164L25.8995 18.0771L25.3468 17.4859L26.7763 16.3676L28.7946 14.7841L30.563 16.678L32.0075 18.2233L32.3457 18.5827L33.069 19.3588C32.8148 19.9109 32.5278 20.4654 32.2105 21.0178C31.7596 21.7939 31.2755 22.5461 30.7529 23.2688Z" stroke="black" stroke-width="0.5" stroke-linecap="round" stroke-linejoin="round"/>
<path d="M33.0682 19.3589L32.3449 18.5829L32.0067 18.2234L30.5621 16.6782L28.7938 14.7842L29.289 12.6571L29.3187 12.5208L29.4504 11.9567L29.817 12.3488L34.0411 16.8674C33.9013 17.3178 33.7423 17.7665 33.5653 18.2168C33.4161 18.5988 33.2512 18.978 33.0682 19.3589Z" stroke="black" stroke-width="0.5" stroke-linecap="round" stroke-linejoin="round"/>
<path d="M28.812 12.1492L26.4223 12.8661L26.7716 11.3673L27.0327 10.2435L27.6565 10.9108L28.812 12.1492Z" stroke="black" stroke-width="0.5" stroke-linecap="round" stroke-linejoin="round"/>
<path d="M23.5448 40.9001C21.438 41.5321 19.5622 41.7201 17.9179 41.4414C16.2584 41.1861 14.9139 40.5439 13.8757 39.5476L13.4335 39.0769L13.4096 39.0466L8.40405 33.6945C9.29639 34.551 10.4112 35.1458 11.7604 35.4568C11.9844 35.5095 12.213 35.5534 12.4464 35.5883C13.2179 35.7203 14.0397 35.7473 14.9129 35.6728C15.8999 35.594 16.9549 35.3824 18.0731 35.047C19.1162 34.7341 20.1506 34.3301 21.1821 33.8295C21.4813 33.6873 21.7808 33.5337 22.0817 33.3723C22.4077 33.1958 22.7385 33.0104 23.0652 32.8112C23.4686 32.5703 23.8712 32.3146 24.2721 32.0407C24.3433 31.9931 24.4145 31.9455 24.4846 31.8945C24.6604 31.7743 24.8361 31.6541 25.0108 31.5305C25.4086 31.2463 25.7989 30.9494 26.1826 30.6431C26.3427 30.5202 26.5017 30.3937 26.6586 30.2605C27.2651 29.7675 27.8496 29.2512 28.4191 28.7094C28.911 28.2433 29.3898 27.7586 29.8567 27.2588C29.8798 27.2369 29.8985 27.2126 29.9207 27.1872C30.0809 27.0154 30.2378 26.8447 30.3892 26.6681C30.8625 26.1402 31.316 25.5957 31.7462 25.0357C32.6646 23.8608 33.4978 22.6253 34.2515 21.335C35.4829 19.1969 36.3642 17.0439 36.8658 14.8886C37.055 14.0824 37.1801 13.3104 37.2456 12.575C37.3544 11.377 37.3027 10.2758 37.1053 9.27079C37.0973 9.23195 37.0904 9.19655 37.0825 9.15771C36.7759 7.73951 36.225 6.55951 35.4205 5.62421L40.4654 11.0208C41.5037 12.0171 42.1935 13.3503 42.5542 15.0108C42.9015 16.6641 42.8418 18.5706 42.3375 20.7417C41.8358 22.897 40.9545 25.05 39.7232 27.1881C38.4785 29.3189 37.0172 31.2975 35.3284 33.1119C33.6361 34.9274 31.7694 36.5329 29.7438 37.8938C27.7029 39.278 25.6379 40.2722 23.5448 40.9001Z" stroke="black" stroke-width="0.5" stroke-linecap="round" stroke-linejoin="round"/>
<path d="M20.6101 19.1681L20.8225 18.2538L21.1822 16.7031L23.6367 15.9668L23.405 16.9657L22.2656 17.862L20.6101 19.1681Z" stroke="black" stroke-width="0.5" stroke-linecap="round" stroke-linejoin="round"/>
</svg>
