<svg width="88" height="15" viewBox="0 0 88 15" fill="none" xmlns="http://www.w3.org/2000/svg">
<path d="M6.42625 0.953559C7.07 -0.317851 8.93 -0.317854 9.57375 0.953557L10.6863 3.15088C10.9419 3.65576 11.4361 4.0057 12.0077 4.08666L14.4955 4.43902C15.9349 4.6429 16.5097 6.36716 15.4681 7.35681L13.6679 9.06719C13.2543 9.46019 13.0656 10.0264 13.1632 10.5813L13.5882 12.9964C13.8341 14.3938 12.3293 15.4595 11.0418 14.7997L8.81666 13.6595C8.3054 13.3975 7.6946 13.3975 7.18334 13.6595L4.95821 14.7997C3.67071 15.4595 2.16594 14.3938 2.41183 12.9964L2.83679 10.5813C2.93443 10.0264 2.74569 9.46019 2.33207 9.06719L0.5319 7.35681C-0.509707 6.36716 0.0650625 4.6429 1.50453 4.43902L3.9923 4.08666C4.56391 4.0057 5.05805 3.65576 5.31369 3.15088L6.42625 0.953559Z" fill="#FDC700"/>
<path d="M24.4262 0.953559C25.07 -0.317851 26.93 -0.317854 27.5737 0.953557L28.6863 3.15088C28.9419 3.65576 29.4361 4.0057 30.0077 4.08666L32.4955 4.43902C33.9349 4.6429 34.5097 6.36716 33.4681 7.35681L31.6679 9.06719C31.2543 9.46019 31.0656 10.0264 31.1632 10.5813L31.5882 12.9964C31.8341 14.3938 30.3293 15.4595 29.0418 14.7997L26.8167 13.6595C26.3054 13.3975 25.6946 13.3975 25.1833 13.6595L22.9582 14.7997C21.6707 15.4595 20.1659 14.3938 20.4118 12.9964L20.8368 10.5813C20.9344 10.0264 20.7457 9.46019 20.3321 9.06719L18.5319 7.35681C17.4903 6.36716 18.0651 4.6429 19.5045 4.43902L21.9923 4.08666C22.5639 4.0057 23.0581 3.65576 23.3137 3.15088L24.4262 0.953559Z" fill="#FDC700"/>
<path d="M42.4262 0.953559C43.07 -0.317851 44.93 -0.317854 45.5737 0.953557L46.6863 3.15088C46.9419 3.65576 47.4361 4.0057 48.0077 4.08666L50.4955 4.43902C51.9349 4.6429 52.5097 6.36716 51.4681 7.35681L49.6679 9.06719C49.2543 9.46019 49.0656 10.0264 49.1632 10.5813L49.5882 12.9964C49.8341 14.3938 48.3293 15.4595 47.0418 14.7997L44.8167 13.6595C44.3054 13.3975 43.6946 13.3975 43.1833 13.6595L40.9582 14.7997C39.6707 15.4595 38.1659 14.3938 38.4118 12.9964L38.8368 10.5813C38.9344 10.0264 38.7457 9.46019 38.3321 9.06719L36.5319 7.35681C35.4903 6.36716 36.0651 4.6429 37.5045 4.43902L39.9923 4.08666C40.5639 4.0057 41.0581 3.65576 41.3137 3.15088L42.4262 0.953559Z" fill="#FDC700"/>
<path d="M60.4262 0.953559C61.07 -0.317851 62.93 -0.317854 63.5737 0.953557L64.6863 3.15088C64.9419 3.65576 65.4361 4.0057 66.0077 4.08666L68.4955 4.43902C69.9349 4.6429 70.5097 6.36716 69.4681 7.35681L67.6679 9.06719C67.2543 9.46019 67.0656 10.0264 67.1632 10.5813L67.5882 12.9964C67.8341 14.3938 66.3293 15.4595 65.0418 14.7997L62.8167 13.6595C62.3054 13.3975 61.6946 13.3975 61.1833 13.6595L58.9582 14.7997C57.6707 15.4595 56.1659 14.3938 56.4118 12.9964L56.8368 10.5813C56.9344 10.0264 56.7457 9.46019 56.3321 9.06719L54.5319 7.35681C53.4903 6.36716 54.0651 4.6429 55.5045 4.43902L57.9923 4.08666C58.5639 4.0057 59.0581 3.65576 59.3137 3.15088L60.4262 0.953559Z" fill="#FDC700"/>
<path d="M78.4262 0.953559C79.07 -0.317851 80.93 -0.317854 81.5737 0.953557L82.6863 3.15088C82.9419 3.65576 83.4361 4.0057 84.0077 4.08666L86.4955 4.43902C87.9349 4.6429 88.5097 6.36716 87.4681 7.35681L85.6679 9.06719C85.2543 9.46019 85.0656 10.0264 85.1632 10.5813L85.5882 12.9964C85.8341 14.3938 84.3293 15.4595 83.0418 14.7997L80.8167 13.6595C80.3054 13.3975 79.6946 13.3975 79.1833 13.6595L76.9582 14.7997C75.6707 15.4595 74.1659 14.3938 74.4118 12.9964L74.8368 10.5813C74.9344 10.0264 74.7457 9.46019 74.3321 9.06719L72.5319 7.35681C71.4903 6.36716 72.0651 4.6429 73.5045 4.43902L75.9923 4.08666C76.5639 4.0057 77.0581 3.65576 77.3137 3.15088L78.4262 0.953559Z" fill="#FDC700"/>
</svg>
