<svg width="31" height="30" viewBox="0 0 31 30" fill="none" xmlns="http://www.w3.org/2000/svg">
<rect width="28" height="28" rx="6" fill="#FF4B2B" fill-opacity="0.15"/>
<path d="M15.7421 18.6728C15.7421 18.6728 15.7283 18.6781 15.7207 18.6781L15.7421 18.6921L15.7848 18.6641C15.7711 18.6676 15.7573 18.6711 15.7421 18.6728Z" fill="#FF4B2B" stroke="white" stroke-width="0.087572" stroke-linecap="round" stroke-linejoin="round"/>
<path d="M14.6383 11.5811V13.0295L13.9365 13.4954H13.9349L13.018 14.1031C12.9036 14.1784 12.7739 14.2257 12.6274 14.245C12.5786 14.252 12.5283 14.2538 12.4749 14.2538H12.4688V13.019L13.0745 12.6179L14.6383 11.5811Z" fill="#FF4B2B" stroke="white" stroke-width="0.087572" stroke-linecap="round" stroke-linejoin="round"/>
<path d="M22.8101 12.6777L14.0741 6.88914C13.7736 6.68947 13.4105 6.58964 12.9848 6.58789C12.5576 6.58789 12.196 6.68597 11.897 6.88388L5.38691 11.1994C5.08788 11.3973 4.93989 11.6373 4.94142 11.9193C4.94294 12.203 5.09398 12.443 5.39301 12.6426L6.94311 13.6707L8.58625 14.7584L9.66949 15.4765L10.2248 15.8443L12.9467 17.6465L13.5005 18.0143L14.1291 18.4311C14.4296 18.6308 14.7927 18.7306 15.2184 18.7324C15.3984 18.7324 15.5678 18.7149 15.7249 18.6781C15.7325 18.6781 15.7402 18.6781 15.7463 18.6728C15.7615 18.6711 15.7753 18.6676 15.789 18.6641C15.9782 18.615 16.1506 18.5397 16.3062 18.4364L19.089 16.5921L21.26 15.1524L22.8162 14.1208C23.1137 13.9247 23.2617 13.6847 23.2617 13.4045V13.401C23.2602 13.1173 23.1091 12.8773 22.8101 12.6777ZM9.35215 12.0734C9.30333 12.0787 9.25298 12.0822 9.20111 12.0822C8.99209 12.0822 8.81054 12.0296 8.65492 11.928C8.50082 11.8247 8.42302 11.7038 8.42302 11.5655C8.42149 11.4271 8.49777 11.308 8.65187 11.2064L11.9077 9.04867C12.0618 8.94708 12.2418 8.89629 12.4508 8.89629C12.6598 8.89629 12.8414 8.94883 12.9955 9.05042C13.1511 9.15375 13.2289 9.27285 13.2289 9.41121C13.2304 9.54958 13.1526 9.67043 13 9.77201L12.4157 10.1591L9.74425 11.9298C9.6283 12.0051 9.49709 12.0541 9.35215 12.0734ZM12.6293 14.2434C12.5805 14.2504 12.5301 14.2522 12.4767 14.2522H12.4706C12.2647 14.2504 12.0846 14.1997 11.9321 14.0981L11.9244 14.0928L11.8451 14.0403L10.7527 13.3169L10.2935 13.0122C10.1394 12.9106 10.0616 12.7897 10.0601 12.6514C10.0601 12.513 10.1364 12.3939 10.2904 12.2923L13.5157 10.1538L13.5447 10.1346C13.6988 10.0312 13.8804 9.98218 14.0894 9.98218C14.2984 9.98218 14.48 10.033 14.6341 10.1363L16.2711 11.2222C16.4267 11.3238 16.5045 11.4446 16.5045 11.583C16.5061 11.7003 16.4511 11.8019 16.3413 11.8948C16.3214 11.9105 16.3001 11.928 16.2757 11.9438L14.6402 13.0279L13.9383 13.4938H13.9368L13.0199 14.1016C12.9055 14.1769 12.7758 14.2242 12.6293 14.2434ZM19.6169 14.0648C19.5971 14.0823 19.5757 14.0981 19.5513 14.1138L17.9158 15.198L17.214 15.6639H17.2124L16.2955 16.2716C16.1811 16.3469 16.0514 16.3942 15.9049 16.4152H15.9034C15.8546 16.4205 15.8042 16.424 15.7524 16.424H15.7463C15.5403 16.424 15.3603 16.3697 15.2077 16.2699L15.2001 16.2646L15.1207 16.2121L14.0284 15.4887L13.5691 15.184C13.5386 15.1647 13.5127 15.1437 13.4883 15.1227C13.3876 15.0351 13.3372 14.9353 13.3357 14.8232C13.3357 14.6848 13.412 14.564 13.5661 14.4624L14.6402 13.7513L14.721 13.697L16.8219 12.3046C16.8463 12.2888 16.8707 12.2748 16.8951 12.2608C17.0309 12.189 17.188 12.1522 17.365 12.1522C17.574 12.1522 17.7556 12.2048 17.9097 12.3081L19.5483 13.3922C19.7024 13.4956 19.7801 13.6164 19.7801 13.7548C19.7816 13.8721 19.7268 13.9755 19.6169 14.0648Z" fill="#FF4B2B" stroke="white" stroke-width="0.087572" stroke-linecap="round" stroke-linejoin="round"/>
<path d="M13.2297 9.41238C13.2313 9.55075 13.1535 9.6716 13.0009 9.77318L12.4166 10.1602L9.74509 11.931C9.62914 12.0063 9.49791 12.0553 9.35297 12.0746C9.30415 12.0798 9.25382 12.0833 9.20195 12.0833C8.99293 12.0833 8.81136 12.0308 8.65574 11.9292C8.50165 11.8259 8.42385 11.705 8.42385 11.5667C8.42232 11.4283 8.49861 11.3092 8.6527 11.2076L11.9085 9.04984C12.0626 8.94825 12.2426 8.89746 12.4516 8.89746C12.6606 8.89746 12.8422 8.95 12.9963 9.05159C13.1519 9.15492 13.2297 9.27402 13.2297 9.41238Z" fill="#FF4B2B" stroke="white" stroke-width="0.087572" stroke-linecap="round" stroke-linejoin="round"/>
<path d="M16.5031 11.5832C16.5046 11.7006 16.4497 11.8022 16.3398 11.895C16.32 11.9108 16.2986 11.9283 16.2742 11.944L14.6387 13.0282V11.5797L14.094 11.2172L12.2952 12.4082L11.923 12.6551V14.0931L11.8436 14.0405L10.7513 13.3172L10.292 13.0124C10.1379 12.9108 10.0601 12.79 10.0586 12.6516C10.0586 12.5133 10.1349 12.3942 10.289 12.2926L13.5143 10.1541L13.5432 10.1348C13.6973 10.0315 13.8789 9.98242 14.0879 9.98242C14.2969 9.98242 14.4785 10.0332 14.6326 10.1365L16.2696 11.2224C16.4252 11.324 16.5031 11.4449 16.5031 11.5832Z" fill="#FF4B2B" stroke="white" stroke-width="0.087572" stroke-linecap="round" stroke-linejoin="round"/>
<path d="M17.9156 13.75V15.1984L17.2138 15.6643H17.2123L16.2953 16.2721C16.1809 16.3474 16.0512 16.3947 15.9048 16.4157H15.9032C15.8544 16.4209 15.8041 16.4245 15.7522 16.4245H15.7461V15.1897L16.3518 14.7869L17.9156 13.75Z" fill="#FF4B2B" stroke="white" stroke-width="0.087572" stroke-linecap="round" stroke-linejoin="round"/>
<path d="M15.7454 15.1897V16.4245C15.5394 16.4245 15.3594 16.3702 15.2068 16.2703L15.1992 16.2651V14.8271L15.7454 15.1897Z" fill="#FF4B2B" stroke="white" stroke-width="0.087572" stroke-linecap="round" stroke-linejoin="round"/>
<path d="M19.7804 13.7549C19.782 13.8723 19.727 13.9756 19.6172 14.0649C19.5973 14.0824 19.576 14.0982 19.5515 14.114L17.916 15.1981V13.7497L17.3714 13.3889L15.8121 14.4205L15.2003 14.8268V16.2647L15.121 16.2122L14.0286 15.4888L13.5694 15.1841C13.5389 15.1648 13.5129 15.1438 13.4885 15.1228C13.3878 15.0352 13.3374 14.9354 13.3359 14.8233C13.3359 14.6849 13.4122 14.5641 13.5663 14.4625L14.6404 13.7514L14.7213 13.6971L16.8221 12.3047C16.8465 12.289 16.8709 12.2749 16.8953 12.2609C17.0311 12.1891 17.1883 12.1523 17.3653 12.1523C17.5743 12.1523 17.7558 12.2049 17.9099 12.3082L19.5485 13.3924C19.7026 13.4957 19.7804 13.6165 19.7804 13.7549Z" fill="#FF4B2B" stroke="white" stroke-width="0.087572" stroke-linecap="round" stroke-linejoin="round"/>
<path d="M14.6415 11.5803L13.0777 12.6172L12.472 13.0183L11.9258 12.6557L12.298 12.4088L14.0968 11.2178L14.6415 11.5803Z" fill="#FF4B2B" stroke="white" stroke-width="0.087572" stroke-linecap="round" stroke-linejoin="round"/>
<path d="M17.9149 13.7495L16.3511 14.7863L15.7454 15.1892L15.1992 14.8266L15.811 14.4203L17.3703 13.3887L17.9149 13.7495Z" fill="#FF4B2B" stroke="white" stroke-width="0.087572" stroke-linecap="round" stroke-linejoin="round"/>
<path d="M23.2617 13.4051V16.9045C23.2632 17.1865 23.1152 17.4265 22.8162 17.6244L16.3062 21.9399C16.0071 22.1378 15.6456 22.2359 15.2184 22.2359C14.7927 22.2359 14.4296 22.1343 14.129 21.9347L5.393 16.1461C5.09397 15.9465 4.94293 15.7065 4.94141 15.4228V11.9199C4.94293 12.2037 5.09397 12.4436 5.393 12.6433L6.94309 13.6714L8.58625 14.759L9.66948 15.4771L10.2248 15.8449L12.9466 17.6471L13.5005 18.0149L14.129 18.4318C14.4296 18.6314 14.7927 18.7313 15.2184 18.733C15.3984 18.733 15.5678 18.7155 15.7249 18.6787L15.7463 18.6927L15.789 18.6647C15.9782 18.6157 16.1506 18.5404 16.3062 18.437L19.089 16.5928L21.26 15.1531L22.8162 14.1215C23.1137 13.9253 23.2617 13.6854 23.2617 13.4051Z" fill="#FF4B2B" stroke="white" stroke-width="0.087572"/>
<path d="M12.472 13.0178V14.2526C12.266 14.2508 12.086 14.2 11.9334 14.0985L11.9258 14.0932V12.6553L12.472 13.0178Z" fill="#FF4B2B" stroke="white" stroke-width="0.087572" stroke-linecap="round" stroke-linejoin="round"/>
<path d="M26 20.375C28.5543 20.375 30.625 22.4457 30.625 25C30.625 27.5543 28.5543 29.625 26 29.625C23.4457 29.625 21.375 27.5543 21.375 25C21.375 22.4457 23.4457 20.375 26 20.375Z" fill="#FF4B2B" stroke="white" stroke-width="0.75"/>
<path d="M24.5 26.5L27.5 23.5M27.5 23.5H25.25M27.5 23.5V25.75" stroke="white" stroke-width="0.375" stroke-linecap="round" stroke-linejoin="round"/>
</svg>
