<svg width="31" height="37" viewBox="0 0 31 37" fill="none" xmlns="http://www.w3.org/2000/svg">
<path d="M16.8047 16.3445L16.9103 16.29L16.9307 16.2832" stroke="#00A644" stroke-width="0.5" stroke-linecap="round" stroke-linejoin="round"/>
<path d="M23.1895 35.0439C23.1895 35.4049 23.084 35.6432 22.8728 35.7658C22.6583 35.8884 22.3961 35.8578 22.0794 35.6739L2.10675 24.1433C1.79346 23.9628 1.53122 23.687 1.31668 23.3226C1.10554 22.9548 1 22.5904 1 22.2295C1 21.8685 1.10554 21.6301 1.31668 21.5075L1.38136 21.4769C1.58569 21.3917 1.82411 21.4326 2.10675 21.5961L22.0794 33.1301C22.3961 33.3106 22.6583 33.5831 22.8728 33.9508C23.084 34.3185 23.1895 34.6829 23.1895 35.0439Z" stroke="#00A644" stroke-width="0.5" stroke-linecap="round" stroke-linejoin="round"/>
<path d="M23.1895 18.0132V18.49C23.1895 18.851 23.084 19.0927 22.8728 19.2119C22.6583 19.3345 22.3961 19.3039 22.0794 19.1234L20.6662 18.3061L20.0157 17.9315L17.7954 16.6511L14.0086 14.4614L13.3582 14.0868L11.1379 12.8064L7.34761 10.6167L1.99776 7.52802C1.71851 7.36797 1.48352 7.11937 1.28941 6.78565C1.0953 6.44851 1 6.12159 1 5.80489V5.10338C1 4.87181 1.04766 4.69814 1.14982 4.58916C1.19409 4.54149 1.24515 4.50062 1.30305 4.47338L1.33713 4.45635C1.40183 4.42571 1.47331 4.40868 1.55163 4.40527L9.34664 4.43252L11.097 4.43933C11.4103 4.45295 11.744 4.55852 12.0947 4.76284C12.4455 4.96716 12.7793 5.243 13.0926 5.59376L14.8395 7.60635L22.5799 16.5149C22.757 16.709 22.8932 16.9167 22.9886 17.1449C23.009 17.1823 23.0227 17.2198 23.0363 17.2572C23.1385 17.5263 23.1895 17.7783 23.1895 18.0132Z" stroke="#00A644" stroke-width="0.5" stroke-linecap="round" stroke-linejoin="round"/>
<path d="M13.2047 17.8188V24.1835C13.2047 24.5445 13.0957 24.7863 12.8846 24.9055C12.6735 25.028 12.4078 24.9974 12.0945 24.8169C11.7812 24.633 11.5157 24.3606 11.3046 23.9928C11.09 23.6284 10.9844 23.2641 10.9844 22.9031V16.535C10.9844 16.2694 11.0423 16.0685 11.158 15.9322C11.1989 15.8846 11.2501 15.8437 11.3046 15.813L11.3692 15.7824C11.5701 15.6973 11.8119 15.7381 12.0945 15.905C12.4078 16.0855 12.6735 16.3579 12.8846 16.7257C13.0412 16.9982 13.1401 17.2672 13.1809 17.5362C13.198 17.6315 13.2047 17.7269 13.2047 17.8188Z" stroke="#00A644" stroke-width="0.5" stroke-linecap="round" stroke-linejoin="round"/>
<path d="M13.3593 14.0863V14.7878L11.3705 15.7822L11.3058 15.8128C11.2513 15.8435 11.2002 15.8844 11.1593 15.932C11.0435 16.0682 10.9856 16.2692 10.9856 16.5348V18.687L10.3386 19.0105L8.22389 20.0662L6.22829 21.064C6.43943 20.9414 6.54847 20.6996 6.54847 20.3386V13.9739C6.54847 13.613 6.43943 13.2486 6.22829 12.8808C6.01716 12.5164 5.7516 12.2406 5.43831 12.0601C5.15566 11.8932 4.91381 11.8558 4.71289 11.9375L7.34867 10.6162L11.1389 12.8059L13.3593 14.0863Z" stroke="#00A644" stroke-width="0.5" stroke-linecap="round" stroke-linejoin="round"/>
<path d="M29.9991 14.608V15.0847C29.9991 15.4457 29.8936 15.6875 29.6825 15.8067L29.6178 15.8373L26.4779 17.4106L24.4517 18.422L22.8717 19.2121C23.0828 19.0929 23.1883 18.8511 23.1883 18.4901V18.0134C23.1883 17.7784 23.1373 17.5264 23.0351 17.2574C23.0215 17.2199 23.0078 17.1824 22.9874 17.145C22.892 16.9168 22.7558 16.7091 22.5788 16.515L14.8383 7.60647L13.0914 5.59388C12.7781 5.24312 12.4443 4.96729 12.0935 4.76296C11.7428 4.55864 11.4091 4.45307 11.0958 4.43945L9.34543 4.43264L1.55044 4.4054C1.47211 4.4088 1.40064 4.42583 1.33594 4.45648L8.11264 1.06811L8.16035 1.04427C8.22165 1.02044 8.28973 1.00341 8.36124 1L17.9066 1.03406C18.2199 1.04768 18.5536 1.15325 18.9043 1.35757C19.2551 1.5619 19.5889 1.83773 19.9022 2.18849L29.3896 13.1096C29.5939 13.3343 29.7472 13.5795 29.8459 13.852C29.9481 14.121 29.9991 14.373 29.9991 14.608Z" stroke="#00A644" stroke-width="0.5" stroke-linecap="round" stroke-linejoin="round"/>
<path d="M19.8648 21.6613V28.0293C19.8648 28.3903 19.7559 28.6287 19.5447 28.7513C19.3336 28.8739 19.068 28.8432 18.7547 28.6593C18.4414 28.4789 18.1757 28.2064 17.9646 27.8386C17.7501 27.4709 17.6445 27.1065 17.6445 26.7455V20.3808C17.6445 20.1152 17.7024 19.9143 17.8182 19.7781C17.8591 19.7304 17.9101 19.6895 17.9646 19.6589L18.0294 19.6282C18.2303 19.5431 18.472 19.584 18.7547 19.7474C19.068 19.9313 19.3336 20.2037 19.5447 20.5715C19.7014 20.844 19.8035 21.113 19.8444 21.382C19.858 21.4774 19.8648 21.5693 19.8648 21.6613Z" stroke="#00A644" stroke-width="0.5" stroke-linecap="round" stroke-linejoin="round"/>
<path d="M20.0154 17.931V18.6325L18.0267 19.6269L17.962 19.6576C17.9075 19.6882 17.8564 19.7291 17.8156 19.7768C17.6998 19.913 17.6419 20.1139 17.6419 20.3795V22.5283L16.9915 22.8518L14.6281 24.0335L12.8845 24.9053C13.0957 24.7861 13.2046 24.5443 13.2046 24.1833V17.8187C13.2046 17.7267 13.1979 17.6314 13.1808 17.536C13.14 17.267 13.0412 16.998 12.8845 16.7256C12.6734 16.3578 12.4078 16.0853 12.0945 15.9049C11.8118 15.738 11.5701 15.6971 11.3691 15.7822L13.3579 14.7879L14.0083 14.4609L17.7951 16.6506L20.0154 17.931Z" stroke="#00A644" stroke-width="0.5" stroke-linecap="round" stroke-linejoin="round"/>
<path d="M26.6736 18.2547V24.6228C26.6736 24.9838 26.5646 25.2222 26.3535 25.3448L26.2888 25.3754L23.6497 26.6967L21.2862 27.8784L19.5427 28.7502C19.7538 28.6276 19.8628 28.3892 19.8628 28.0282V21.6601C19.8628 21.5682 19.856 21.4762 19.8424 21.3808C19.8015 21.1118 19.6994 20.8428 19.5427 20.5704C19.3316 20.2026 19.0659 19.9302 18.7526 19.7463C18.47 19.5828 18.2283 19.542 18.0273 19.6271L20.016 18.6327L20.6665 18.3058L22.0797 19.1231C22.3964 19.3036 22.6586 19.3342 22.8732 19.2116L24.4533 18.4216L26.4795 17.4102C26.6089 17.6928 26.6736 17.9755 26.6736 18.2547Z" stroke="#00A644" stroke-width="0.5" stroke-linecap="round" stroke-linejoin="round"/>
<path d="M29.9998 31.638C29.9998 31.9989 29.8943 32.2373 29.6832 32.3599L29.6184 32.3905L22.8724 35.7653C23.0835 35.6427 23.189 35.4043 23.189 35.0433C23.189 34.6823 23.0835 34.318 22.8724 33.9502C22.6578 33.5824 22.3956 33.31 22.0789 33.1295L2.10625 21.5954C1.82361 21.432 1.58518 21.3911 1.38086 21.4762L4.52061 19.9064C4.55807 19.9881 4.599 20.0698 4.64668 20.1515C4.85781 20.5159 5.12343 20.7918 5.43673 20.9722C5.75003 21.1527 6.01561 21.1834 6.22675 21.0642L8.22234 20.0664L10.3371 19.0107L10.9841 19.3853V22.9031C10.9841 23.2641 11.0897 23.6285 11.3042 23.9928C11.5154 24.3606 11.7809 24.633 12.0942 24.8169C12.4075 24.9974 12.6732 25.0281 12.8843 24.9055L14.6279 24.0337L16.9912 22.852L17.6416 23.23V26.7444C17.6416 27.1054 17.7472 27.4697 17.9617 27.8375C18.1728 28.2053 18.4385 28.4777 18.7518 28.6582C19.0651 28.8421 19.3307 28.8728 19.5418 28.7502L21.2854 27.8784L23.6488 26.6967L28.8897 29.7241C29.2064 29.9046 29.4686 30.177 29.6832 30.5448C29.8943 30.9126 29.9998 31.277 29.9998 31.638Z" stroke="#00A644" stroke-width="0.5" stroke-linecap="round" stroke-linejoin="round"/>
<path d="M1.30158 4.47266L1.26758 4.48965" stroke="#00A644" stroke-width="0.5" stroke-linecap="round" stroke-linejoin="round"/>
<path d="M6.54649 13.9735V20.3382C6.54649 20.6992 6.43745 20.941 6.22631 21.0636C6.01518 21.1828 5.74963 21.1521 5.43633 20.9717C5.12303 20.7912 4.85738 20.5153 4.64625 20.1509C4.59857 20.0692 4.55767 19.9875 4.52021 19.9057C4.39081 19.6197 4.32617 19.337 4.32617 19.0578V12.6931C4.32617 12.3322 4.43171 12.0904 4.64625 11.9678L4.71095 11.9371C4.91187 11.8554 5.15368 11.8928 5.43633 12.0597C5.74963 12.2402 6.01518 12.516 6.22631 12.8804C6.43745 13.2482 6.54649 13.6126 6.54649 13.9735Z" stroke="#00A644" stroke-width="0.5" stroke-linecap="round" stroke-linejoin="round"/>
<path d="M23.1895 35.0439C23.1895 35.4049 23.084 35.6432 22.8728 35.7658C22.6583 35.8884 22.3961 35.8578 22.0794 35.6739L2.10675 24.1433C1.79346 23.9628 1.53122 23.687 1.31668 23.3226C1.10554 22.9548 1 22.5904 1 22.2295C1 21.8685 1.10554 21.6301 1.31668 21.5075L1.38136 21.4769C1.58569 21.3917 1.82411 21.4326 2.10675 21.5961L22.0794 33.1301C22.3961 33.3106 22.6583 33.5831 22.8728 33.9508C23.084 34.3185 23.1895 34.6829 23.1895 35.0439Z" stroke="#00A644" stroke-width="0.5" stroke-linecap="round" stroke-linejoin="round"/>
<path d="M23.1895 18.0132V18.49C23.1895 18.851 23.084 19.0927 22.8728 19.2119C22.6583 19.3345 22.3961 19.3039 22.0794 19.1234L20.6662 18.3061L20.0157 17.9315L17.7954 16.6511L14.0086 14.4614L13.3582 14.0868L11.1379 12.8064L7.34761 10.6167L1.99776 7.52802C1.71851 7.36797 1.48352 7.11937 1.28941 6.78565C1.0953 6.44851 1 6.12159 1 5.80489V5.10338C1 4.87181 1.04766 4.69814 1.14982 4.58916C1.19409 4.54149 1.24515 4.50062 1.30305 4.47338L1.33713 4.45635C1.40183 4.42571 1.47331 4.40868 1.55163 4.40527L9.34664 4.43252L11.097 4.43933C11.4103 4.45295 11.744 4.55852 12.0947 4.76284C12.4455 4.96716 12.7793 5.243 13.0926 5.59376L14.8395 7.60635L22.5799 16.5149C22.757 16.709 22.8932 16.9167 22.9886 17.1449C23.009 17.1823 23.0227 17.2198 23.0363 17.2572C23.1385 17.5263 23.1895 17.7783 23.1895 18.0132Z" stroke="#00A644" stroke-width="0.5" stroke-linecap="round" stroke-linejoin="round"/>
<path d="M13.2047 17.8188V24.1835C13.2047 24.5445 13.0957 24.7863 12.8846 24.9055C12.6735 25.028 12.4078 24.9974 12.0945 24.8169C11.7812 24.633 11.5157 24.3606 11.3046 23.9928C11.09 23.6284 10.9844 23.2641 10.9844 22.9031V16.535C10.9844 16.2694 11.0423 16.0685 11.158 15.9322C11.1989 15.8846 11.2501 15.8437 11.3046 15.813L11.3692 15.7824C11.5701 15.6973 11.8119 15.7381 12.0945 15.905C12.4078 16.0855 12.6735 16.3579 12.8846 16.7257C13.0412 16.9982 13.1401 17.2672 13.1809 17.5362C13.198 17.6315 13.2047 17.7269 13.2047 17.8188Z" stroke="#00A644" stroke-width="0.5" stroke-linecap="round" stroke-linejoin="round"/>
<path d="M13.3593 14.0863V14.7878L11.3705 15.7822L11.3058 15.8128C11.2513 15.8435 11.2002 15.8844 11.1593 15.932C11.0435 16.0682 10.9856 16.2692 10.9856 16.5348V18.687L10.3386 19.0105L8.22389 20.0662L6.22829 21.064C6.43943 20.9414 6.54847 20.6996 6.54847 20.3386V13.9739C6.54847 13.613 6.43943 13.2486 6.22829 12.8808C6.01716 12.5164 5.7516 12.2406 5.43831 12.0601C5.15566 11.8932 4.91381 11.8558 4.71289 11.9375L7.34867 10.6162L11.1389 12.8059L13.3593 14.0863Z" stroke="#00A644" stroke-width="0.5" stroke-linecap="round" stroke-linejoin="round"/>
<path d="M29.9991 14.608V15.0847C29.9991 15.4457 29.8936 15.6875 29.6825 15.8067L29.6178 15.8373L26.4779 17.4106L24.4517 18.422L22.8717 19.2121C23.0828 19.0929 23.1883 18.8511 23.1883 18.4901V18.0134C23.1883 17.7784 23.1373 17.5264 23.0351 17.2574C23.0215 17.2199 23.0078 17.1824 22.9874 17.145C22.892 16.9168 22.7558 16.7091 22.5788 16.515L14.8383 7.60647L13.0914 5.59388C12.7781 5.24312 12.4443 4.96729 12.0935 4.76296C11.7428 4.55864 11.4091 4.45307 11.0958 4.43945L9.34543 4.43264L1.55044 4.4054C1.47211 4.4088 1.40064 4.42583 1.33594 4.45648L8.11264 1.06811L8.16035 1.04427C8.22165 1.02044 8.28973 1.00341 8.36124 1L17.9066 1.03406C18.2199 1.04768 18.5536 1.15325 18.9043 1.35757C19.2551 1.5619 19.5889 1.83773 19.9022 2.18849L29.3896 13.1096C29.5939 13.3343 29.7472 13.5795 29.8459 13.852C29.9481 14.121 29.9991 14.373 29.9991 14.608Z" stroke="#00A644" stroke-width="0.5" stroke-linecap="round" stroke-linejoin="round"/>
<path d="M19.8648 21.6613V28.0293C19.8648 28.3903 19.7559 28.6287 19.5447 28.7513C19.3336 28.8739 19.068 28.8432 18.7547 28.6593C18.4414 28.4789 18.1757 28.2064 17.9646 27.8386C17.7501 27.4709 17.6445 27.1065 17.6445 26.7455V20.3808C17.6445 20.1152 17.7024 19.9143 17.8182 19.7781C17.8591 19.7304 17.9101 19.6895 17.9646 19.6589L18.0294 19.6282C18.2303 19.5431 18.472 19.584 18.7547 19.7474C19.068 19.9313 19.3336 20.2037 19.5447 20.5715C19.7014 20.844 19.8035 21.113 19.8444 21.382C19.858 21.4774 19.8648 21.5693 19.8648 21.6613Z" stroke="#00A644" stroke-width="0.5" stroke-linecap="round" stroke-linejoin="round"/>
<path d="M20.0154 17.931V18.6325L18.0267 19.6269L17.962 19.6576C17.9075 19.6882 17.8564 19.7291 17.8156 19.7768C17.6998 19.913 17.6419 20.1139 17.6419 20.3795V22.5283L16.9915 22.8518L14.6281 24.0335L12.8845 24.9053C13.0957 24.7861 13.2046 24.5443 13.2046 24.1833V17.8187C13.2046 17.7267 13.1979 17.6314 13.1808 17.536C13.14 17.267 13.0412 16.998 12.8845 16.7256C12.6734 16.3578 12.4078 16.0853 12.0945 15.9049C11.8118 15.738 11.5701 15.6971 11.3691 15.7822L13.3579 14.7879L14.0083 14.4609L17.7951 16.6506L20.0154 17.931Z" stroke="#00A644" stroke-width="0.5" stroke-linecap="round" stroke-linejoin="round"/>
<path d="M26.6736 18.2547V24.6228C26.6736 24.9838 26.5646 25.2222 26.3535 25.3448L26.2888 25.3754L23.6497 26.6967L21.2862 27.8784L19.5427 28.7502C19.7538 28.6276 19.8628 28.3892 19.8628 28.0282V21.6601C19.8628 21.5682 19.856 21.4762 19.8424 21.3808C19.8015 21.1118 19.6994 20.8428 19.5427 20.5704C19.3316 20.2026 19.0659 19.9302 18.7526 19.7463C18.47 19.5828 18.2283 19.542 18.0273 19.6271L20.016 18.6327L20.6665 18.3058L22.0797 19.1231C22.3964 19.3036 22.6586 19.3342 22.8732 19.2116L24.4533 18.4216L26.4795 17.4102C26.6089 17.6928 26.6736 17.9755 26.6736 18.2547Z" stroke="#00A644" stroke-width="0.5" stroke-linecap="round" stroke-linejoin="round"/>
<path d="M29.9998 31.638C29.9998 31.9989 29.8943 32.2373 29.6832 32.3599L29.6184 32.3905L22.8724 35.7653C23.0835 35.6427 23.189 35.4043 23.189 35.0433C23.189 34.6823 23.0835 34.318 22.8724 33.9502C22.6578 33.5824 22.3956 33.31 22.0789 33.1295L2.10625 21.5954C1.82361 21.432 1.58518 21.3911 1.38086 21.4762L4.52061 19.9064C4.55807 19.9881 4.599 20.0698 4.64668 20.1515C4.85781 20.5159 5.12343 20.7918 5.43673 20.9722C5.75003 21.1527 6.01561 21.1834 6.22675 21.0642L8.22234 20.0664L10.3371 19.0107L10.9841 19.3853V22.9031C10.9841 23.2641 11.0897 23.6285 11.3042 23.9928C11.5154 24.3606 11.7809 24.633 12.0942 24.8169C12.4075 24.9974 12.6732 25.0281 12.8843 24.9055L14.6279 24.0337L16.9912 22.852L17.6416 23.23V26.7444C17.6416 27.1054 17.7472 27.4697 17.9617 27.8375C18.1728 28.2053 18.4385 28.4777 18.7518 28.6582C19.0651 28.8421 19.3307 28.8728 19.5418 28.7502L21.2854 27.8784L23.6488 26.6967L28.8897 29.7241C29.2064 29.9046 29.4686 30.177 29.6832 30.5448C29.8943 30.9126 29.9998 31.277 29.9998 31.638Z" stroke="#00A644" stroke-width="0.5" stroke-linecap="round" stroke-linejoin="round"/>
<path d="M1.30158 4.47266L1.26758 4.48965" stroke="#00A644" stroke-width="0.5" stroke-linecap="round" stroke-linejoin="round"/>
<path d="M6.54649 13.9735V20.3382C6.54649 20.6992 6.43745 20.941 6.22631 21.0636C6.01518 21.1828 5.74963 21.1521 5.43633 20.9717C5.12303 20.7912 4.85738 20.5153 4.64625 20.1509C4.59857 20.0692 4.55767 19.9875 4.52021 19.9057C4.39081 19.6197 4.32617 19.337 4.32617 19.0578V12.6931C4.32617 12.3322 4.43171 12.0904 4.64625 11.9678L4.71095 11.9371C4.91187 11.8554 5.15368 11.8928 5.43633 12.0597C5.74963 12.2402 6.01518 12.516 6.22631 12.8804C6.43745 13.2482 6.54649 13.6126 6.54649 13.9735Z" stroke="#00A644" stroke-width="0.5" stroke-linecap="round" stroke-linejoin="round"/>
</svg>
