<svg width="45" height="42" viewBox="0 0 45 42" fill="none" xmlns="http://www.w3.org/2000/svg">
<path d="M13.1795 31.8736C10.8224 32.115 8.83443 31.9443 7.20747 31.3622C5.71662 30.8238 4.5275 29.9377 3.64907 28.7113C1.80967 26.1352 1.82646 22.7644 3.69488 18.595C5.56742 14.4252 8.7189 10.7333 13.1493 7.51919C17.5839 4.30468 22.0603 2.46397 26.5751 2.00158C31.0899 1.53918 34.2712 2.59563 36.1101 5.16762L36.507 5.78933C37.2528 7.08694 37.5696 8.5724 37.4526 10.2422C37.3496 11.7666 36.8841 13.4476 36.0598 15.2803L19.8773 16.9377L25.3523 24.6045L26.6057 26.3601C26.4716 26.4561 26.3374 26.5522 26.1988 26.6445C24.1808 28.0689 22.082 29.2259 19.9028 30.1197C17.5811 31.0691 15.3372 31.6526 13.1795 31.8736Z" stroke="#2563EB" stroke-width="0.5" stroke-linecap="round" stroke-linejoin="round"/>
<path d="M40.9647 23.0054L25.3523 24.6044L19.8774 16.9376L36.0598 15.2802L40.9647 23.0054Z" stroke="#2563EB" stroke-width="0.5" stroke-linecap="round" stroke-linejoin="round"/>
<path d="M40.9627 23.0053L36.0578 15.2802C36.8821 13.4474 37.3476 11.7665 37.4507 10.242C37.5676 8.57222 37.2508 7.08677 36.505 5.78916L41.0131 12.8926C42.8521 15.4646 42.8353 18.8355 40.9627 23.0053Z" stroke="#2563EB" stroke-width="0.5" stroke-linecap="round" stroke-linejoin="round"/>
<path d="M18.0835 39.598C13.5687 40.0604 10.392 39.0076 8.55302 36.4356L8.14139 35.7908L3.64807 28.7105C4.5265 29.9369 5.71563 30.823 7.20647 31.3615C8.83343 31.9435 10.8214 32.1143 13.1785 31.8729C15.3362 31.6519 17.5801 31.0684 19.9018 30.1189C22.081 29.2252 24.1798 28.0681 26.1978 26.6438C26.3364 26.5514 26.4706 26.4553 26.6047 26.3593L31.5097 34.0845C29.365 35.637 27.132 36.8901 24.8067 37.8441C22.4851 38.7935 20.2411 39.3771 18.0835 39.598Z" stroke="#2563EB" stroke-width="0.5" stroke-linecap="round" stroke-linejoin="round"/>
</svg>
