<svg width="120" height="91" viewBox="0 0 120 91" fill="none" xmlns="http://www.w3.org/2000/svg">
<path d="M115.012 22.4088C112.08 18.1739 107.687 14.3593 101.845 10.9861C96.002 7.61279 89.4026 5.08025 82.0572 3.38839C74.7118 1.68601 67.2508 0.834827 59.6742 0.824319C52.0976 0.81381 44.6366 1.63347 37.3121 3.30432C29.9877 4.97517 23.4199 7.48669 17.6193 10.8389C11.8081 14.1911 7.45751 17.9847 4.56768 22.2091C1.67785 26.444 0.248743 30.742 0.26976 35.1135C0.290777 38.6339 1.24704 42.1122 3.14907 45.5274C3.61144 46.3681 4.13686 47.2088 4.71482 48.0389C7.64669 52.2844 12.0393 56.0884 17.882 59.4616C23.4199 62.6562 29.6304 65.1047 36.524 66.786C36.9023 66.8911 37.2806 66.9857 37.6589 67.0698C37.9952 67.1433 38.321 67.2169 38.6572 67.2905C43.8589 68.4359 49.1342 69.161 54.462 69.4657C56.3115 69.5708 58.182 69.6339 60.0525 69.6339C62.4589 69.6339 64.8549 69.5603 67.2403 69.3816C72.3579 69.0349 77.402 68.2783 82.404 67.1433C82.7087 67.0698 83.024 66.9962 83.3287 66.9227C90.2854 65.2728 96.5379 62.8349 102.107 59.6193C107.908 56.2671 112.259 52.4735 115.149 48.2386C115.663 47.482 116.136 46.7149 116.567 45.9478C118.48 42.5115 119.446 39.0122 119.446 35.4708V35.3342C119.425 30.9522 117.944 26.6542 115.012 22.4088ZM52.7911 51.3806C51.6667 52.0322 50.2691 52.3474 48.5877 52.3474H40.0759H38.6572H35.1054C33.8443 52.3264 32.7935 52.0847 31.9423 51.6013C31.7321 51.4752 31.5535 51.3491 31.3959 51.223C30.923 50.8027 30.6813 50.3193 30.6708 49.7728C30.6708 49.0372 31.0911 48.4383 31.9213 47.9549C32.6043 47.5555 33.4345 47.3139 34.4118 47.2508C34.6325 47.2298 34.8532 47.2298 35.0843 47.2298H38.6572C37.8271 46.7254 37.0494 46.2 36.3349 45.643C34.7376 44.4345 33.4135 43.1 32.3627 41.6603C30.8494 39.5691 30.1138 37.4149 30.1769 35.1871C30.1559 32.9172 30.881 30.7315 32.3521 28.6193C33.382 27.1376 34.7376 25.782 36.4294 24.542C37.144 24.0166 37.9111 23.5227 38.7413 23.0393C39.8552 22.3983 41.0321 21.8203 42.2616 21.3159C43.4806 20.8115 44.7942 20.3596 46.2023 19.9603C47.3162 19.6345 48.4616 19.603 49.6176 19.8657C50.7735 20.1389 51.6037 20.6118 52.0976 21.3054C52.2762 21.5786 52.3708 21.8518 52.3708 22.1145C52.4023 22.5033 52.2552 22.8922 51.9504 23.281C51.4355 23.943 50.6054 24.4369 49.4915 24.7627C48.6508 25.0044 47.8627 25.2986 47.1271 25.6349C46.3915 25.9816 45.6664 26.36 44.9728 26.7593C43.0077 27.8942 41.526 29.1762 40.5172 30.6159C39.5084 32.045 39.004 33.5793 39.0145 35.1976C39.025 36.8159 39.5925 38.3816 40.7274 39.8844C41.3159 40.662 42.0304 41.3976 42.8921 42.0806C43.6803 42.7111 44.584 43.2996 45.5928 43.8461L45.5718 41.1664C45.5718 40.4413 45.9921 39.8318 46.8328 39.3484C47.6735 38.865 48.7243 38.6233 49.9854 38.6233C51.2464 38.6233 52.2972 38.865 53.1484 39.3589C53.9891 39.8423 54.4199 40.4518 54.4199 41.1874L54.462 48.9637C54.462 49.941 53.905 50.7501 52.7911 51.3911V51.3806ZM88.4464 40.3888C88.1732 40.9037 87.8474 41.4081 87.4796 41.902C86.8596 42.7322 86.145 43.5203 85.3254 44.2769C84.7264 44.8339 84.0748 45.3698 83.3603 45.8742C82.6247 46.4101 81.8365 46.925 80.9854 47.4189C80.8908 47.4715 80.7962 47.524 80.7016 47.5766C79.6613 48.165 78.5684 48.6905 77.4125 49.1739C77.2233 49.2474 77.0342 49.3315 76.845 49.3945C75.9728 49.7518 75.0796 50.0671 74.1443 50.3508C73.9026 50.4244 73.6609 50.4979 73.4193 50.5715C72.2948 50.8867 71.1599 50.9183 70.004 50.6555C68.8376 50.3823 68.0074 49.9094 67.5135 49.2159C67.0932 48.5749 67.1562 47.9023 67.7132 47.2193C68.2701 46.5257 69.1108 46.0213 70.2352 45.6955C71.0759 45.4538 71.864 45.1701 72.5996 44.8233C73.3352 44.4766 74.0498 44.1088 74.7538 43.6989C76.7084 42.5745 78.1901 41.282 79.2094 39.8528C79.3776 39.6111 79.5247 39.38 79.6613 39.1383C80.3549 37.9193 80.7016 36.6583 80.7016 35.3132V35.2606C80.7016 33.6423 80.1132 32.0766 78.9467 30.5528C77.7803 29.0291 76.1725 27.6735 74.1338 26.4966V29.2918C74.1548 30.0274 73.7345 30.6264 72.8938 31.1203C72.0532 31.6037 71.0023 31.8454 69.7413 31.8349C68.4803 31.8349 67.4189 31.5932 66.5782 31.1098C65.7271 30.6159 65.3067 30.0064 65.3067 29.2813L65.2647 22.0094V21.4945C65.2542 20.5277 65.8111 19.7186 66.9355 19.0671C68.0494 18.4261 69.4576 18.1003 71.1389 18.1003L84.6108 18.1318C85.8823 18.1318 86.9332 18.3735 87.7738 18.8674C88.625 19.3508 89.0454 19.9603 89.0454 20.6959C89.0559 21.421 88.6355 22.0305 87.7948 22.5139C86.9542 22.9972 85.9454 23.26 84.7474 23.2915H80.9537C81.7103 23.7223 82.4145 24.1742 83.0765 24.6576C84.842 25.8976 86.2816 27.2742 87.406 28.7769C88.9613 30.8366 89.7494 33.0118 89.7599 35.2816C89.7704 37.0576 89.3291 38.7705 88.4464 40.3888Z" fill="black" fill-opacity="0.15" stroke="white" stroke-width="0.53" stroke-linecap="round" stroke-linejoin="round"/>
<path d="M52.3734 22.1037C52.4049 22.4925 52.2578 22.8813 51.9531 23.2701C51.4382 23.9322 50.608 24.4261 49.4941 24.7518C48.6534 24.9935 47.8653 25.2877 47.1297 25.624C46.3941 25.9708 45.669 26.3491 44.9754 26.7484C43.0104 27.8833 41.5287 29.1654 40.5199 30.605C39.511 32.0342 39.0066 33.5684 39.0171 35.1867C39.0276 36.805 39.5951 38.3708 40.73 39.8735C41.3185 40.6511 42.0331 41.3867 42.8948 42.0698C43.6829 42.7003 44.5866 43.2888 45.5954 43.8352V52.3471H40.0785H38.6599V47.2294C37.8297 46.725 37.0521 46.1996 36.3375 45.6427C34.7402 44.4342 33.4161 43.0996 32.3653 41.66C30.8521 39.5688 30.1165 37.4145 30.1795 35.1867C30.1585 32.9169 30.8836 30.7311 32.3548 28.6189C33.3846 27.1372 34.7402 25.7816 36.4321 24.5416C37.1466 24.0162 37.9138 23.5223 38.7439 23.0389C39.8578 22.3979 41.0348 21.82 42.2643 21.3155C43.4832 20.8111 44.7968 20.3593 46.2049 19.96C47.3188 19.6342 48.4643 19.6027 49.6202 19.8654C50.7761 20.1386 51.6063 20.6115 52.1002 21.305C52.2788 21.5783 52.3734 21.8515 52.3734 22.1142V22.1037Z" fill="black" fill-opacity="0.15" stroke="white" stroke-width="0.53" stroke-linecap="round" stroke-linejoin="round"/>
<path d="M38.6564 47.2188V52.3364H35.1046C33.8436 52.3154 32.7927 52.0737 31.9416 51.5903C31.7314 51.4642 31.5526 51.3381 31.395 51.212C30.9221 50.7916 30.6804 50.3082 30.6699 49.7618C30.6699 49.0262 31.0903 48.4272 31.9204 47.9438C32.6035 47.5445 33.4337 47.3028 34.4109 47.2398C34.6316 47.2188 34.8524 47.2188 35.0836 47.2188H38.6564Z" fill="black" fill-opacity="0.15" stroke="white" stroke-width="0.53" stroke-linecap="round" stroke-linejoin="round"/>
<path d="M54.4605 48.9536C54.4605 49.9309 53.9035 50.7401 52.7896 51.3811C51.6652 52.0326 50.2676 52.3479 48.5862 52.3479H45.5913V43.836L45.5703 41.1563C45.5703 40.4312 45.9907 39.8218 46.8313 39.3384C47.672 38.855 48.7229 38.6133 49.9839 38.6133C51.2449 38.6133 52.2957 38.855 53.1469 39.3489C53.9876 39.8323 54.4184 40.4418 54.4184 41.1773L54.4605 48.9536Z" fill="black" fill-opacity="0.15" stroke="white" stroke-width="0.53" stroke-linecap="round" stroke-linejoin="round"/>
<path d="M89.7612 35.2802C89.7717 37.0561 89.3303 38.769 88.4476 40.3873C88.1744 40.9022 87.8487 41.4066 87.4809 41.9005C86.8609 42.7307 86.1464 43.5189 85.3267 44.2755C84.7277 44.8324 84.0762 45.3683 83.3616 45.8727C82.6155 45.3263 81.8168 44.8009 80.9551 44.307V23.29C81.7117 23.7209 82.4159 24.1728 83.0779 24.6561C84.8433 25.8961 86.283 27.2728 87.4074 28.7755C88.9626 30.8351 89.7507 33.0104 89.7612 35.2802Z" fill="black" fill-opacity="0.15" stroke="white" stroke-width="0.53" stroke-linecap="round" stroke-linejoin="round"/>
<path d="M89.0425 20.6962C89.053 21.4213 88.6327 22.0308 87.792 22.5141C86.9513 22.9975 85.9425 23.2602 84.7446 23.2918H80.951V44.3087C81.8127 44.8026 82.6113 45.328 83.3575 45.8745C82.6219 46.4104 81.8337 46.9253 80.9825 47.4192C80.888 47.4718 80.7934 47.5243 80.6988 47.5769V35.2609C80.6988 33.6426 80.1103 32.0769 78.9439 30.5531C77.7775 29.0294 76.1697 27.6738 74.131 26.4969V29.2921C74.152 30.0277 73.7317 30.6267 72.891 31.1206C72.0503 31.604 70.9995 31.8457 69.7385 31.8352C68.4775 31.8352 67.4161 31.5935 66.5754 31.1101C65.7242 30.6162 65.3039 30.0067 65.3039 29.2816L65.2619 22.0097V21.4948C65.2514 20.528 65.8083 19.7189 66.9327 19.0674C68.0466 18.4263 69.4547 18.1006 71.1361 18.1006L84.608 18.1321C85.8795 18.1321 86.9303 18.3738 87.771 18.8677C88.6222 19.3511 89.0425 19.9606 89.0425 20.6962Z" fill="black" fill-opacity="0.15" stroke="white" stroke-width="0.53" stroke-linecap="round" stroke-linejoin="round"/>
<path d="M80.7016 35.3135V47.5769C79.6613 48.1653 78.5684 48.6908 77.4125 49.1742C77.2233 49.2477 77.0343 49.3318 76.8451 49.3948C75.9729 49.7521 75.0796 50.0674 74.1444 50.3511C73.9027 50.4247 73.661 50.4982 73.4193 50.5718C72.2949 50.887 71.1599 50.9186 70.004 50.6558C68.8376 50.3826 68.0074 49.9097 67.5135 49.2162C67.0932 48.5752 67.1562 47.9026 67.7132 47.2196C68.2701 46.526 69.1109 46.0216 70.2353 45.6958C71.076 45.4542 71.8641 45.1704 72.5997 44.8236C73.3353 44.4769 74.0499 44.1091 74.754 43.6992C76.7085 42.5748 78.1902 41.2823 79.2095 39.8531C79.3777 39.6114 79.5247 39.3803 79.6613 39.1386C80.3549 37.9196 80.7016 36.6586 80.7016 35.3135Z" fill="black" fill-opacity="0.15" stroke="white" stroke-width="0.53" stroke-linecap="round" stroke-linejoin="round"/>
<path d="M119.446 35.4686V56.349C119.478 60.7205 118.038 65.029 115.148 69.2534C112.258 73.4883 107.908 77.2818 102.107 80.634C96.296 83.9862 89.7282 86.4978 82.4038 88.1581C75.0793 89.829 67.6288 90.6591 60.0522 90.6486C52.4651 90.6276 45.0041 89.7764 37.6587 88.0845C30.3132 86.3822 23.7244 83.8496 17.8817 80.4764C12.039 77.1032 7.64646 73.2991 4.7146 69.0537C1.77222 64.8188 0.301057 60.5103 0.269531 56.1283V35.1113C0.290548 38.6317 1.24681 42.11 3.14884 45.5252C3.61122 46.3659 4.13663 47.2066 4.7146 48.0368C7.64646 52.2822 12.039 56.0862 17.8817 59.4595C23.4197 62.654 29.6302 65.1025 36.5238 66.7839C36.9021 66.889 37.2804 66.9835 37.6587 67.0676C37.9949 67.1412 38.3207 67.2148 38.657 67.2884C43.8587 68.4338 49.1339 69.1589 54.4617 69.4636C56.3112 69.5687 58.1817 69.6317 60.0522 69.6317C62.4587 69.6317 64.8546 69.5581 67.24 69.3795C72.3577 69.0327 77.4017 68.2761 82.4038 67.1412C82.7085 67.0676 83.0238 66.994 83.3285 66.9205C90.2851 65.2706 96.5377 62.8327 102.107 59.6171C107.908 56.2649 112.258 52.4713 115.148 48.2364C115.663 47.4798 116.136 46.7127 116.567 45.9456C118.479 42.5093 119.446 39.01 119.446 35.4686Z" fill="black" fill-opacity="0.15" stroke="white" stroke-width="0.53" stroke-linecap="round" stroke-linejoin="round"/>
</svg>
