<svg width="135" height="101" viewBox="0 0 135 101" fill="none" xmlns="http://www.w3.org/2000/svg">
<path d="M128.327 53.1397V75.5562C128.338 76.4313 127.777 77.1831 126.666 77.8339C125.555 78.4734 124.232 78.7986 122.728 78.7874C121.213 78.7874 119.89 78.4622 118.768 77.8226L114.818 75.5338V53.0947L118.768 55.3836C119.89 56.0231 121.213 56.3484 122.728 56.3484C124.232 56.3596 125.555 56.0344 126.666 55.3948C126.745 55.35 126.823 55.3051 126.891 55.249C127.844 54.6544 128.327 53.9475 128.327 53.1397Z" fill="black" fill-opacity="0.15" stroke="white" stroke-width="0.560976" stroke-linecap="round" stroke-linejoin="round"/>
<path d="M114.822 53.0947V75.5338L112.6 76.8128V62.205C112.6 61.9133 112.533 61.644 112.409 61.3747C112.23 60.7016 111.691 60.0957 110.783 59.5796L107.182 57.5041L114.822 53.0947Z" fill="black" fill-opacity="0.15" stroke="white" stroke-width="0.560976" stroke-linecap="round" stroke-linejoin="round"/>
<path d="M99.0778 62.1816V84.6207L96.8564 85.8996V71.2807C96.8564 70.4168 96.2954 69.6538 95.1735 69.0031L91.2129 66.7142L91.4485 66.5796L99.0778 62.1816Z" fill="black" fill-opacity="0.15" stroke="white" stroke-width="0.560976" stroke-linecap="round" stroke-linejoin="round"/>
<path d="M96.854 71.3037V93.7202C96.8652 94.5954 96.3042 95.3582 95.1935 95.9977C94.0828 96.6484 92.7701 96.9627 91.2555 96.9627C89.7408 96.9627 88.4281 96.6373 87.3062 95.9866L83.3457 93.6978V71.2588L87.3062 73.5476C88.4281 74.1983 89.7408 74.5237 91.2555 74.5237C91.6369 74.5237 91.9959 74.5012 92.355 74.4676C93.4096 74.3442 94.352 74.0411 95.1823 73.5587C96.2818 72.9304 96.8428 72.1676 96.8428 71.3037H96.854Z" fill="black" fill-opacity="0.15" stroke="white" stroke-width="0.560976" stroke-linecap="round" stroke-linejoin="round"/>
<path d="M130.507 34.8941L75.0826 2.89603C72.906 1.63944 70.2693 1.01122 67.1839 1C64.0874 1 61.4621 1.61698 59.2967 2.87357L4.23132 34.6698C2.06595 35.9151 0.988867 37.4297 1.00009 39.2136C1.00009 40.9975 2.09965 42.5234 4.27624 43.78L15.7987 50.4331L27.6689 57.2882L49.4348 69.8542L53.3953 72.143L59.7006 75.7781C61.8772 77.0347 64.5137 77.6628 67.5991 77.6628C70.6956 77.6741 73.3211 77.0458 75.4865 75.8004L83.3514 71.2566L87.3119 73.5454C88.4338 74.1961 89.7465 74.5215 91.2611 74.5215C91.6426 74.5215 92.0016 74.499 92.3606 74.4654C93.4153 74.342 94.3577 74.0389 95.1879 73.5565C96.2875 72.9282 96.8484 72.1654 96.8484 71.3015V71.279C96.8484 70.4151 96.2875 69.6522 95.1655 69.0015L91.205 66.7126L91.4405 66.578L99.0699 62.18L103.03 64.4575C104.152 65.1082 105.465 65.4336 106.98 65.4336C107.653 65.4336 108.281 65.3776 108.865 65.243C109.616 65.0859 110.301 64.8277 110.918 64.4687C112.04 63.8292 112.59 63.0775 112.59 62.2023C112.59 61.9106 112.522 61.6414 112.399 61.3721C112.219 60.6989 111.681 60.0931 110.772 59.577L107.17 57.5015L114.811 53.0921L118.76 55.381C119.882 56.0205 121.206 56.3458 122.721 56.3458C124.224 56.357 125.548 56.0317 126.659 55.3922C126.737 55.3473 126.816 55.3025 126.883 55.2464C127.837 54.6517 128.319 53.9449 128.319 53.1371V53.1145C128.319 52.2394 127.758 51.4765 126.636 50.837L122.676 48.5483L130.541 44.0043C132.695 42.7702 133.772 41.2555 133.772 39.4828V39.4605C133.761 37.6654 132.672 36.1506 130.496 34.8941H130.507ZM43.6455 25.6267L63.3133 14.2726C64.424 13.6219 65.7367 13.3078 67.2514 13.3078C68.766 13.3078 70.0787 13.6331 71.2006 14.2838L85.0567 22.2834C86.1787 22.9229 86.7397 23.6859 86.7509 24.561C86.7509 25.4361 86.1899 26.199 85.0792 26.8386L81.3879 28.9702L69.2597 35.9711L65.4114 38.1927C64.3006 38.8322 62.988 39.1576 61.4733 39.1576C60.7553 39.1576 60.0932 39.0789 59.4649 38.9331C58.7581 38.7648 58.1186 38.5181 57.5239 38.1815L47.2693 32.2576L43.668 30.182C42.546 29.5312 41.985 28.7683 41.9738 27.8932C41.9738 27.0293 42.5236 26.2663 43.6455 25.6267ZM41.9963 50.5117H41.8054C40.2908 50.5117 38.9781 50.1864 37.8561 49.5356L27.6016 43.6117L24 41.5361C22.8781 40.8854 22.3171 40.1225 22.3059 39.2586C22.3059 38.3834 22.8556 37.6204 23.9776 36.9809L31.8425 32.4371C32.9532 31.7976 34.2659 31.4722 35.7805 31.4722C37.2952 31.4834 38.608 31.7976 39.7299 32.4483L43.3313 34.5239L53.5859 40.4478C54.1805 40.7956 54.6182 41.1659 54.8987 41.5698C55.1455 41.9288 55.28 42.3214 55.28 42.7253C55.28 43.6004 54.7304 44.3634 53.6084 45.0029L45.7435 49.5469C44.6776 50.1639 43.4323 50.4781 41.9963 50.5117ZM91.1377 53.0473L79.8958 59.5433L75.3181 62.18L71.4699 64.4015C70.3592 65.041 69.0465 65.3664 67.5319 65.3664C66.8138 65.3664 66.1519 65.2989 65.5236 65.1419C64.8167 64.9848 64.1772 64.7381 63.5826 64.3903L49.7265 56.3908C49.2104 56.099 48.8176 55.7737 48.5483 55.4371C48.2117 55.022 48.0436 54.5843 48.0323 54.1131C48.0323 53.238 48.5933 52.475 49.7041 51.8355L69.3719 40.4814C70.4826 39.8306 71.7953 39.5165 73.3099 39.5165C74.8245 39.5165 76.1372 39.8419 77.2592 40.4926L86.2348 45.676L91.1153 48.4921C92.1699 49.098 92.7197 49.7936 92.787 50.6014C92.8094 50.6575 92.8094 50.7137 92.8094 50.7698C92.8094 51.6449 92.2597 52.4078 91.1377 53.0473ZM110.805 41.6932L107.114 43.8248L102.941 46.237C101.83 46.8765 100.517 47.2019 99.0025 47.1906C97.4878 47.1906 96.1753 46.8653 95.0533 46.2145L81.1971 38.2263C80.0751 37.5755 79.5143 36.8127 79.5031 35.9376C79.5031 35.0625 80.0528 34.3108 81.1748 33.66L85.3372 31.259L89.0396 29.1272C90.1504 28.4765 91.463 28.1623 92.9776 28.1623C94.4922 28.1623 95.8049 28.4877 96.9269 29.1384L110.783 37.138C111.905 37.7775 112.466 38.5405 112.477 39.4156C112.477 40.2908 111.928 41.0537 110.805 41.6932Z" fill="black" fill-opacity="0.15" stroke="white" stroke-width="0.560976" stroke-linecap="round" stroke-linejoin="round"/>
<path d="M112.474 39.4183C112.474 40.2934 111.924 41.0564 110.802 41.6959L107.111 43.8275L102.937 46.2397C101.827 46.8792 100.514 47.2045 98.9994 47.1933C97.4848 47.1933 96.1722 46.868 95.0502 46.2172L81.194 38.2289C80.0721 37.5782 79.5112 36.8154 79.5 35.9403C79.5 35.0652 80.0498 34.3134 81.1717 33.6627L85.334 31.2617L89.0366 29.1299C90.1473 28.4792 91.4599 28.165 92.9745 28.165C94.4892 28.165 95.8018 28.4904 96.9238 29.1411L110.78 37.1406C111.901 37.7802 112.462 38.5432 112.474 39.4183Z" fill="black" fill-opacity="0.15" stroke="white" stroke-width="0.560976" stroke-linecap="round" stroke-linejoin="round"/>
<path d="M92.8025 50.7708C92.8025 51.6459 92.2527 52.4088 91.1308 53.0483L79.8888 59.5443L75.3111 62.181C74.6828 62.0239 74.021 61.9566 73.303 61.9566C71.7883 61.9566 70.4756 62.2706 69.3649 62.9214L65.5166 65.1428C64.8098 64.9858 64.1703 64.739 63.5756 64.3912L49.7195 56.3917C49.2034 56.1 48.8106 55.7747 48.5414 55.4381C48.2048 55.0229 48.0366 54.5854 48.0254 54.1142C48.0254 53.239 48.5864 52.476 49.6971 51.8365L69.3649 40.4823C70.4756 39.8316 71.7883 39.5176 73.303 39.5176C74.8176 39.5176 76.1303 39.8429 77.2522 40.4937L86.2278 45.6771L91.1083 48.4932C92.1629 49.099 92.7127 49.7947 92.78 50.6025C92.8025 50.6586 92.8025 50.7147 92.8025 50.7708Z" fill="black" fill-opacity="0.15" stroke="white" stroke-width="0.560976" stroke-linecap="round" stroke-linejoin="round"/>
<path d="M86.7497 24.5627C86.7497 25.4379 86.1888 26.2008 85.078 26.8403L81.3868 28.9719L69.2585 35.9729C68.6302 35.8158 67.9683 35.7486 67.2502 35.7486C65.7356 35.7486 64.4229 36.0626 63.3122 36.7134L59.4638 38.9348C58.7569 38.7665 58.1175 38.5198 57.5229 38.1832L47.2682 32.2593L43.6668 30.1837C42.5448 29.533 41.9839 28.7701 41.9727 27.8949C41.9727 27.031 42.5224 26.268 43.6444 25.6285L63.3122 14.2743C64.4229 13.6236 65.7356 13.3096 67.2502 13.3096C68.7649 13.3096 70.0775 13.6348 71.1995 14.2856L85.0556 22.2852C86.1775 22.9247 86.7385 23.6876 86.7497 24.5627Z" fill="black" fill-opacity="0.15" stroke="white" stroke-width="0.560976" stroke-linecap="round" stroke-linejoin="round"/>
<path d="M55.2788 42.7267C55.2788 43.6018 54.7291 44.3649 53.6071 45.0044L45.7422 49.5483C44.6764 50.1653 43.431 50.4795 41.9949 50.5131H41.8042C40.2896 50.5131 38.9769 50.1878 37.8549 49.537L27.6004 43.6131L23.9988 41.5375C22.8769 40.8868 22.3159 40.1239 22.3047 39.26C22.3047 38.3849 22.8544 37.6219 23.9764 36.9824L31.8413 32.4385C32.952 31.799 34.2647 31.4736 35.7793 31.4736C37.294 31.4849 38.6066 31.799 39.7286 32.4497L43.3301 34.5253L53.5847 40.4492C54.1793 40.797 54.6169 41.1673 54.8974 41.5712C55.1442 41.9302 55.2788 42.3228 55.2788 42.7267Z" fill="black" fill-opacity="0.15" stroke="white" stroke-width="0.560976" stroke-linecap="round" stroke-linejoin="round"/>
<path d="M133.776 39.4854V61.9021C133.787 63.686 132.71 65.2005 130.545 66.4458L128.323 67.7249V53.1171C128.323 52.2419 127.762 51.479 126.64 50.8395L122.68 48.5508L130.545 44.0068C132.699 42.7727 133.776 41.258 133.776 39.4854Z" fill="black" fill-opacity="0.15" stroke="white" stroke-width="0.560976" stroke-linecap="round" stroke-linejoin="round"/>
<path d="M83.3512 71.2589V93.6979L75.4864 98.2417C73.321 99.487 70.6956 100.115 67.5991 100.104C64.5137 100.104 61.8771 99.4759 59.7005 98.2193L4.27614 66.2213C2.09956 64.9647 1.01122 63.4387 1 61.6548V39.2158C1 40.9997 2.09956 42.5257 4.27614 43.7823L15.7986 50.4353L27.6688 57.2905L49.4347 69.8564L53.3952 72.1452L59.7005 75.7803C61.8771 77.0369 64.5137 77.6652 67.5991 77.6652C70.6956 77.6764 73.321 77.048 75.4864 75.8026L83.3512 71.2589Z" fill="black" fill-opacity="0.15" stroke="white" stroke-width="0.560976" stroke-linecap="round" stroke-linejoin="round"/>
<path d="M112.594 62.204V84.643C112.594 85.5181 112.044 86.2698 110.922 86.9093C109.811 87.5601 108.499 87.8742 106.984 87.8742C105.469 87.8742 104.157 87.5488 103.035 86.8981L99.0742 84.6207V62.1816L103.035 64.4591C104.157 65.1098 105.469 65.4352 106.984 65.4352C107.657 65.4352 108.285 65.3792 108.869 65.2446C109.621 65.0875 110.305 64.8293 110.922 64.4703C112.044 63.8308 112.594 63.0791 112.594 62.204Z" fill="black" fill-opacity="0.15" stroke="white" stroke-width="0.560976" stroke-linecap="round" stroke-linejoin="round"/>
</svg>
