<svg width="124" height="109" viewBox="0 0 124 109" fill="none" xmlns="http://www.w3.org/2000/svg">
<path d="M70.4662 41.53V61.9752H70.4422C67.858 62.5041 65.0695 62.7685 62.0887 62.7565C59.0357 62.7445 56.187 62.468 53.5547 61.9031L53.3984 49.1143V25.0752L53.4826 32.0586L53.5908 41.3977C53.6028 42.804 54.4081 43.9699 56.0307 44.9075C57.6534 45.845 59.6726 46.3137 62.1126 46.3137C64.5526 46.3137 66.5478 45.869 68.1224 44.9555C69.6849 44.0661 70.4662 42.9122 70.4662 41.53Z" fill="black" fill-opacity="0.15" stroke="white" stroke-width="0.600977" stroke-linecap="round" stroke-linejoin="round"/>
<path d="M53.3974 25.0752V49.1143L40.4044 52.8764C39.9477 53.0086 39.515 53.0687 39.1063 53.0928H39.0943V43.3689C39.0943 43.3689 39.1063 43.3089 39.1063 43.2848C39.1544 42.6959 38.9619 42.1189 38.5413 41.554C37.9763 40.8088 37.1351 40.2439 36.0413 39.8833H36.0293V27.2988C36.0413 27.7315 36.3298 28.1282 36.9187 28.4887C37.8803 29.0897 39.0462 29.2099 40.4044 28.8373L53.3974 25.0752Z" fill="black" fill-opacity="0.15" stroke="white" stroke-width="0.600977" stroke-linecap="round" stroke-linejoin="round"/>
<path d="M98.5572 48.5136V48.718C98.5572 48.8622 98.5572 48.9944 98.5572 49.1387C98.5452 49.5473 98.5091 49.968 98.449 50.3767C98.3288 51.3142 98.0883 52.2518 97.7277 53.2014C97.7157 53.2375 97.7038 53.2614 97.6918 53.2974C96.1773 57.336 92.92 60.7856 87.9079 63.6823C86.8982 64.2713 85.8525 64.8122 84.7828 65.305C79.4341 67.817 73.3642 69.2834 66.5612 69.7041C65.1308 69.8003 63.6524 69.8363 62.15 69.8363C60.6475 69.8363 59.1571 69.7882 57.7028 69.6801C50.7675 69.2233 44.5653 67.6848 39.1204 65.0646H39.1085C38.1469 64.6078 37.2214 64.1151 36.308 63.5863C31.2117 60.6415 27.8582 57.1557 26.2596 53.1412H26.2476V53.1051C26.1875 52.9729 26.1514 52.8527 26.1034 52.7205C25.8509 52.0354 25.6586 51.3504 25.5384 50.6653C25.4062 49.9561 25.334 49.2468 25.334 48.5377V48.5136C25.334 47.0593 25.6345 45.6049 26.1994 44.1626C26.1994 44.1506 26.2114 44.1506 26.2114 44.1385C26.584 43.177 27.0768 42.2274 27.7018 41.2899C28.2668 40.4605 29.2645 39.8836 30.6948 39.5591C32.1252 39.2225 33.6036 39.2466 35.106 39.6192C35.4425 39.6913 35.743 39.7754 36.0435 39.8836H36.0555C37.1493 40.2442 37.9906 40.8091 38.5555 41.5543C38.9762 42.1192 39.1685 42.6963 39.1204 43.2853C39.1204 43.3093 39.1205 43.3452 39.1085 43.3693C39.0604 43.7539 38.9281 44.1385 38.6757 44.5352C37.8944 46.0496 37.558 47.5761 37.6662 49.1146C37.7263 50.0882 37.9786 51.0618 38.3992 52.0474C38.5555 52.408 38.7359 52.7565 38.9282 53.0931C38.9883 53.1893 39.0364 53.2974 39.1085 53.3816C39.1085 53.3936 39.1204 53.3936 39.1204 53.4056C40.3224 55.3648 42.2456 57.1196 44.8899 58.6341C47.4861 60.1366 50.3707 61.2183 53.5679 61.9034C56.2002 62.4683 59.0488 62.7448 62.1018 62.7568C65.0826 62.7688 67.8713 62.5044 70.4555 61.9755H70.4795C73.7248 61.3024 76.6576 60.2087 79.2899 58.6942C81.8019 57.2519 83.6289 55.5932 84.7828 53.7301C84.8669 53.5979 84.9511 53.4657 85.0232 53.3215C85.0592 53.2614 85.0832 53.2133 85.1192 53.1532C85.2995 52.8166 85.4559 52.4801 85.5881 52.1315C85.9727 51.17 86.1771 50.2324 86.2251 49.2829C86.2973 47.7204 85.9366 46.1698 85.1192 44.6193C84.9389 44.3188 84.8309 44.0063 84.7828 43.7058C84.6506 43.0327 84.8549 42.3717 85.3717 41.7346C85.9487 41.0375 86.742 40.4966 87.7757 40.136C88.1122 40.0278 88.4727 39.9318 88.8573 39.8477C90.4319 39.5231 91.9224 39.511 93.3167 39.8235C94.723 40.136 95.7086 40.7009 96.2855 41.5303C96.8023 42.3116 97.223 43.1169 97.5476 43.9102C97.5476 43.9222 97.5595 43.9222 97.5595 43.9342C98.2085 45.4366 98.5452 46.9751 98.5692 48.5136H98.5572Z" fill="black" fill-opacity="0.15" stroke="white" stroke-width="0.600977" stroke-linecap="round" stroke-linejoin="round"/>
<path d="M87.7592 27.2507V27.5633C87.6991 27.9238 87.4105 28.2724 86.9057 28.5729C85.9321 29.1739 84.7663 29.282 83.4081 28.9094L70.3788 25.0992L70.415 32.4071L70.4631 41.4819V41.53C70.4631 42.9122 69.6817 44.0661 68.1191 44.9555C66.5446 45.869 64.5493 46.3137 62.1093 46.3137C59.6694 46.3137 57.6502 45.845 56.0276 44.9075C54.4049 43.9699 53.5996 42.804 53.5876 41.3978L53.4794 32.0586L53.3952 25.0752L40.4022 28.8373C39.044 29.2099 37.8781 29.0897 36.9165 28.4888C36.3275 28.1282 36.0391 27.7315 36.0391 27.2988V27.2628C36.0391 26.9863 36.1712 26.7099 36.4116 26.4094L59.0685 1.99762C59.6455 1.33655 60.5349 1 61.7609 1C62.9749 1.01202 63.8763 1.33655 64.4533 1.99762L87.3746 26.4935C87.5909 26.7579 87.7231 27.0104 87.7592 27.2507Z" fill="black" fill-opacity="0.15" stroke="white" stroke-width="0.600977" stroke-linecap="round" stroke-linejoin="round"/>
<path d="M122.824 49.9915C122.571 53.6214 121.381 57.1792 119.266 60.6529C118.857 61.326 118.424 61.987 117.944 62.6481C116.009 65.3405 113.509 67.8405 110.456 70.1483C108.845 71.3623 107.078 72.5282 105.155 73.634C102.787 75.0042 100.299 76.2302 97.6791 77.324C93.7487 78.9706 89.5298 80.3048 85.0345 81.3265C83.3398 81.7111 81.633 82.0597 79.9262 82.3481C74.0967 83.3698 68.1951 83.8746 62.2094 83.8626C56.1155 83.8506 50.0936 83.3097 44.1439 82.2279C42.5453 81.9395 40.9468 81.615 39.3482 81.2423C34.6606 80.1606 30.2735 78.7423 26.1868 76.9994H26.1748C23.7228 75.9417 21.3909 74.7758 19.1553 73.4897C17.3283 72.432 15.6335 71.3382 14.083 70.2084C9.87616 67.1674 6.69106 63.8741 4.51552 60.3163C2.49624 57.0229 1.34238 53.5253 1.06593 49.7992C0.368792 40.5802 5.20057 32.5151 15.5614 25.6279C16.6311 24.9187 17.9773 24.5461 19.588 24.486C21.1986 24.4259 22.6529 24.7264 23.939 25.3875C25.2371 26.0606 25.9583 26.902 26.1026 27.9356V28.6208C25.9944 29.39 25.5016 30.0992 24.6121 30.7242C16.9076 36.5056 13.3619 43.0202 13.9749 50.2559C13.987 50.4122 13.9989 50.5685 14.0349 50.7247C14.4195 54.3786 15.8379 57.7321 18.2898 60.7971C20.0808 63.0447 22.4246 65.1241 25.3213 67.0352C25.6698 67.2756 26.0184 67.504 26.379 67.7324C26.8117 67.9968 27.2684 68.2732 27.7252 68.5377C30.8383 70.3286 34.1556 71.8431 37.6533 73.057C44.9853 75.6172 53.1586 76.9033 62.1732 76.9153C71.0076 76.9153 79.0246 75.7254 86.2123 73.2854C89.8663 72.0714 93.3039 70.5209 96.5251 68.6579C96.8857 68.4535 97.2342 68.2372 97.5828 68.0329C97.9073 67.8285 98.22 67.6242 98.5445 67.4319C98.5445 67.4199 98.5445 67.4199 98.5445 67.4199C101.634 65.4366 104.133 63.3092 106.045 61.0375C108.533 58.0807 110.023 54.8835 110.516 51.4579C110.588 51.0252 110.624 50.5925 110.66 50.1598C111.153 42.9841 107.307 36.5296 99.1093 30.8083C98.1237 30.0871 97.595 29.3179 97.5349 28.4645V28.0318C97.631 27.0222 98.3281 26.1928 99.6142 25.5317C100.9 24.8707 102.367 24.5581 104.013 24.6062C105.66 24.6543 107.03 25.0269 108.112 25.724C113.364 29.1737 117.199 32.9959 119.614 37.2027C122.042 41.4096 123.1 45.6645 122.812 49.9915H122.824Z" fill="black" fill-opacity="0.15" stroke="white" stroke-width="0.600977" stroke-linecap="round" stroke-linejoin="round"/>
<path d="M26.1839 44.1624C25.619 45.6047 25.3184 47.0591 25.3184 48.5134V54.1506C25.1261 54.355 24.8858 54.5713 24.6094 54.7636C22.0372 56.6988 19.9217 58.706 18.2871 60.7974C15.8351 57.7324 14.4167 54.379 14.032 50.725C13.996 50.5688 13.9841 50.4125 13.9721 50.2563C13.3591 43.0205 16.9048 36.5059 24.6094 30.7245C25.4988 30.0995 25.9916 29.3903 26.0998 28.6211L26.1839 44.1624Z" fill="black" fill-opacity="0.15" stroke="white" stroke-width="0.600977" stroke-linecap="round" stroke-linejoin="round"/>
<path d="M87.7612 27.5626V40.1351C86.7276 40.4957 85.9343 41.0366 85.3573 41.7337C84.8405 42.3707 84.6362 43.0318 84.7684 43.7049V53.1643C84.3357 53.1523 83.8909 53.0801 83.4102 52.9479L70.4651 49.1618V41.4813L70.417 32.4065L70.3809 25.0986L83.4102 28.9088C84.7684 29.2814 85.9342 29.1733 86.9077 28.5723C87.4126 28.2718 87.7011 27.9232 87.7612 27.5626Z" fill="black" fill-opacity="0.15" stroke="white" stroke-width="0.600977" stroke-linecap="round" stroke-linejoin="round"/>
<path d="M53.3984 25.0732V25.0615V25.0732Z" fill="black" fill-opacity="0.15"/>
<path d="M53.3984 25.0732V25.0615" stroke="white" stroke-width="0.600977" stroke-linecap="round" stroke-linejoin="round"/>
<path d="M98.5469 49.1387V48.5137V49.1387Z" fill="black" fill-opacity="0.15"/>
<path d="M98.5469 49.1387V48.5137" stroke="white" stroke-width="0.600977" stroke-linecap="round" stroke-linejoin="round"/>
<path d="M39.0918 53.3814V53.0928V53.3814Z" fill="black" fill-opacity="0.15"/>
<path d="M39.0918 53.3814V53.0928" stroke="white" stroke-width="0.600977" stroke-linecap="round" stroke-linejoin="round"/>
<path d="M39.0918 67.3124V66.9277V67.3124Z" fill="black" fill-opacity="0.15"/>
<path d="M39.0918 67.3124V66.9277" stroke="white" stroke-width="0.600977" stroke-linecap="round" stroke-linejoin="round"/>
<path d="M39.0929 43.3682V53.092H38.9127C38.7203 52.7554 38.54 52.4069 38.3838 52.0463C37.9631 51.0607 37.7107 50.0871 37.6506 49.1135C37.5424 47.575 37.8789 46.0485 38.6601 44.5341C38.9125 44.1374 39.0449 43.7528 39.0929 43.3682Z" fill="black" fill-opacity="0.15" stroke="white" stroke-width="0.600977" stroke-linecap="round" stroke-linejoin="round"/>
<path d="M39.0918 43.3696V43.2734V43.3696Z" fill="black" fill-opacity="0.15"/>
<path d="M39.0918 43.3696V43.2734" stroke="white" stroke-width="0.600977" stroke-linecap="round" stroke-linejoin="round"/>
<path d="M98.5395 50.292V67.4318C98.215 67.6242 97.9025 67.8285 97.5779 68.0328C97.2294 68.2372 96.8808 68.4535 96.5202 68.6578C93.299 70.5209 89.8614 72.0714 86.2074 73.2854C79.0197 75.7253 71.0027 76.9273 62.1683 76.9153C53.1537 76.9033 44.9804 75.6172 37.6485 73.057C34.1508 71.843 30.8334 70.3286 27.7203 68.5376C27.2636 68.2732 26.8068 67.9968 26.3741 67.7323C26.0135 67.504 25.665 67.2756 25.3164 67.0352V48.5371C25.3164 49.2463 25.3885 49.9554 25.5207 50.6646C25.6409 51.3497 25.8332 52.0348 26.0857 52.7199C26.1337 52.8521 26.1698 52.9723 26.2299 53.1045V53.1286H26.2419C27.8405 57.1551 31.194 60.6408 36.2903 63.5856C37.2037 64.1144 38.1294 64.6072 39.0909 65.064H39.1029C44.5478 67.6843 50.7499 69.2228 57.6852 69.6795C59.1395 69.7877 60.6178 69.8358 62.1323 69.8358C63.6467 69.8358 65.1133 69.7997 66.5436 69.7035C73.3466 69.2829 79.4165 67.8165 84.7652 65.3044C85.835 64.8116 86.8807 64.2707 87.8903 63.6817C92.9025 60.785 96.1597 57.3354 97.6742 53.2969C97.6862 53.2608 97.6981 53.2368 97.7101 53.2007C98.0707 52.2512 98.3112 51.3136 98.4314 50.3761C98.4675 50.34 98.4914 50.316 98.5395 50.292Z" fill="black" fill-opacity="0.15" stroke="white" stroke-width="0.600977" stroke-linecap="round" stroke-linejoin="round"/>
<path d="M86.2098 49.2822C86.1617 50.2317 85.9574 51.1692 85.5728 52.1308C85.4406 52.4794 85.2843 52.8159 85.104 53.1524C85.0679 53.2125 85.0439 53.2606 85.0078 53.3207C84.9357 53.465 84.8517 53.5972 84.7676 53.7294V43.7051C84.8157 44.0056 84.9237 44.3181 85.104 44.6186C85.9213 46.1691 86.2819 47.7196 86.2098 49.2822Z" fill="black" fill-opacity="0.15" stroke="white" stroke-width="0.600977" stroke-linecap="round" stroke-linejoin="round"/>
<path d="M122.824 74.0301C122.523 78.3572 120.888 82.576 117.944 86.6867C114.987 90.7974 110.732 94.4635 105.155 97.6727C99.2296 101.098 92.5227 103.67 85.0345 105.365C77.5583 107.072 69.9501 107.913 62.2095 107.901C54.4689 107.889 46.8484 107.012 39.3482 105.281C31.848 103.55 25.1171 100.966 19.1554 97.5285C7.79688 90.9658 1.76315 83.0688 1.06602 73.8378C1.01794 73.2609 1.00586 72.684 1.00586 72.1191L1.06602 49.7988C1.34247 53.5249 2.49634 57.0226 4.51563 60.3159C6.69117 63.8737 9.87627 67.1671 14.0831 70.208C15.6336 71.3379 17.3284 72.4316 19.1554 73.4894C21.391 74.7755 23.7229 75.9412 26.1749 76.999H26.1869C30.2736 78.7418 34.6606 80.1601 39.3482 81.2418C40.9468 81.6145 42.5454 81.9391 44.144 82.2276C50.0937 83.3093 56.1156 83.8501 62.2095 83.8621C68.1952 83.8741 74.0967 83.3694 79.9262 82.3478C81.633 82.0593 83.3398 81.7107 85.0345 81.3261C89.5298 80.3044 93.7488 78.9703 97.6792 77.3236C100.299 76.2298 102.787 75.0038 105.155 73.6336C107.078 72.5278 108.845 71.3619 110.456 70.1479C113.509 67.8402 116.009 65.34 117.944 62.6476C118.424 61.9865 118.857 61.3256 119.266 60.6525C121.381 57.1788 122.571 53.6209 122.824 49.991V71.2055C122.884 72.143 122.884 73.0806 122.824 74.0301Z" fill="black" fill-opacity="0.15" stroke="white" stroke-width="0.600977" stroke-linecap="round" stroke-linejoin="round"/>
<path d="M110.67 50.1581C110.634 50.5908 110.598 51.0235 110.526 51.4562C110.033 54.8817 108.543 58.0789 106.055 61.0357C104.264 58.8842 101.944 56.817 99.1195 54.8458C98.9031 54.6895 98.7228 54.5333 98.5546 54.377V49.1365C98.5546 48.9923 98.5546 48.8599 98.5546 48.7157V48.5115C98.5305 46.973 98.194 45.4345 97.5449 43.932V28.4629C97.605 29.3163 98.1339 30.0855 99.1195 30.8067C107.317 36.528 111.163 42.9824 110.67 50.1581Z" fill="black" fill-opacity="0.15" stroke="white" stroke-width="0.600977" stroke-linecap="round" stroke-linejoin="round"/>
</svg>
